<?xml version="1.0" encoding="utf-8"?>
<!-- Generator: Adobe Illustrator 21.0.2, SVG Export Plug-In . SVG Version: 6.00 Build 0)  -->
<svg version="1.1" id="Layer_1" xmlns="http://www.w3.org/2000/svg" xmlns:xlink="http://www.w3.org/1999/xlink" x="0px" y="0px"
	 viewBox="0 0 164 25" style="enable-background:new 0 0 164 25;" xml:space="preserve">
<style type="text/css">
	.st0{fill:#EF4123;}
	.st1{fill:#F7A800;}
</style>
<g>
	<polygon points="23.3,6.2 26.2,6.2 26.2,9.6 30.8,9.6 30.8,12.3 26.2,12.3 26.2,16.2 31.6,16.2 31.6,19.1 18.6,19.1 18.6,16.2 
		23.3,16.2 	"/>
	<g>
		<polygon points="37.5,19.3 40.1,19.3 40.1,13.2 37.5,15 		"/>
		<path d="M41.6,11.1L41.6,11.1L41.6,11.1C41.6,11.3,41.6,11.3,41.6,11.1z"/>
		<g>
			<rect x="41.4" y="6.6" width="7" height="3"/>
			<path d="M48.9,10.4H41l-0.5-0.8l-5.2,3.6l1.6,2.2l0.7-0.4l2.6-1.8l0.9-0.6v0.5h3.1v3.6h-2.3l1,2.5c0,0,1.6,0,2.7,0
				c0.6,0,1.2-0.6,1.2-1.3v-4.8h2.1v-2.7H48.9z"/>
			<rect x="35.8" y="7.3" transform="matrix(0.8191 -0.5737 0.5737 0.8191 2.0476 23.5974)" width="5.3" height="2.5"/>
		</g>
	</g>
	<g>
		<rect x="-0.6" y="16.4" transform="matrix(1.648878e-03 -1 1 1.648878e-03 -15.5123 18.6272)" width="4.3" height="1.3"/>
		<rect x="4.4" y="14.9" width="1.3" height="4.4"/>
		<path d="M14.1,6.5H6.3v1.8L5,7.4L3.7,9.6L3.3,9.2L4.4,7L3,6.1L1.8,8.3L1.5,8l-1,1.7l2.3,1.4l-1,1.8H0.8v1.4h2v4.8h1.3v-4.7h2.2
			v-3.3L5.5,9.7l0.7-1.2v10.7h2.2v-4.7h0.8c0,0,0,1.3,0,1.6s0.1,0.8,0.8,0.8h1.7v-1.4h-0.5v-0.9H12v2.6c0,0.3,0,0.4-0.4,0.4H9.1
			l0.8,1.7c0,0,2.6,0,2.9,0c0.8,0,1.3-0.8,1.3-1.3V6.5z M5.6,13H3.8l0.9-1.8L5.6,13z M9.1,13H8.2v-1.6h0.9V13z M12,13h-0.9v-1.6H12
			V13z M12,10h-0.8l0.3-1.3h-0.8L10.4,10H9.8L9.4,8.7H8.5L8.9,10H8.2V8.5H12V10z"/>
	</g>
	<path class="st0" d="M69.3,12.6c0,1.9-1.6,3.5-3.5,3.5c-1.9,0-3.5-1.6-3.5-3.5s1.6-3.5,3.5-3.5C67.8,9.1,69.3,10.6,69.3,12.6"/>
	<path class="st1" d="M72.3,18.2l5.6-5.6L72.3,7l-1.8,1.8l1.8,1.8h-2.7c0.4,0.6,0.5,1.3,0.5,1.9s-0.1,1.3-0.4,1.8h2.6l-1.8,1.8
		L72.3,18.2z"/>
	<path class="st1" d="M64,16.5v2.6l-1.8-1.8l-1.8,1.8l5.6,5.6l5.6-5.6l-1.8-1.8l-1.8,1.8v-2.7c-0.5,0.3-1.2,0.4-1.8,0.4
		C65.2,16.9,64.5,16.7,64,16.5"/>
	<path class="st1" d="M61.9,10.7h-2.6l1.7-2L59.2,7l-5.6,5.6l5.6,5.6l1.8-1.8l-1.8-1.8h2.7c-0.3-0.5-0.4-1.2-0.4-1.8
		C61.4,11.9,61.6,11.3,61.9,10.7"/>
	<path class="st1" d="M67.6,8.7V6.1l1.8,1.8l2-1.9l-5.6-5.6l-5.6,5.6L62,7.8l1.8-1.8v2.7c0.5-0.3,1.2-0.4,1.8-0.4
		C66.5,8.3,67.1,8.4,67.6,8.7"/>
	<g>
		<path d="M154.2,10.2L154.2,10.2V8.4h-3.1v2.5c-0.8-1.7-2.6-2.6-4.7-2.6c-1.9,0-3.6,0.9-4.6,2.3V8.3H140v-3h-3.1l-0.3,3h-1.6v0.9
			c-0.1-0.1-0.3-0.1-0.4-0.3c-0.9-0.6-2.3-0.8-3.4-0.8c-1.9,0-4.2,0.5-4.8,2.7c0-0.8-0.4-1.4-1-1.9c0.1-0.3,0.7-0.4,1-0.4h0.9
			l-0.1-2.3H127h-1c-1.4,0-2.1,0.8-2.3,2.1c-0.5-0.1-1.2-0.1-1.7-0.1c-2,0-4.6,0.5-4.6,2.9c0,1,0.5,1.7,1.6,2.1
			c-0.9,0.4-1.8,0.9-1.8,2c0,0.6,0.4,1,0.9,1.4c-0.4,0.1-0.6,0.3-0.9,0.5V8.3h-3.6l0,0h-1.8l-1.3,3.9l-0.4,0.9l-1.6-4.8h-2.6V8.1
			h-2.1v-3h-3.3l-0.3,3h-1.6v1.3c-1-0.9-2.3-1.4-3.9-1.4c-1.4,0-2.9,0.5-3.8,1.4c-0.3,0.3-0.5,0.6-0.8,1c0-0.5-0.3-1-0.5-1.6
			C89.2,8.4,88.3,8,87.1,8c-1.3,0-2.2,0.5-2.6,1.3v-1H81v9.2h3.8v-4.9c0-1,0.3-1.6,1-1.6c0.4,0,0.5,0.1,0.7,0.4
			c0,0.1,0.1,0.3,0.1,0.4c0,0.1,0,0.3,0,0.4v5.2h3.8v-2.1c0.3,0.4,0.5,0.8,0.9,1l0,0c0.9,0.8,2.2,1.2,3.8,1.2c2.5,0,4.2-1,4.8-3.1
			L100,14h-3.5l-0.1,0.3c-0.1,0.7-0.5,0.8-1.3,0.8c-0.9,0-1.3-0.5-1.3-1.6h6.2v-0.4c0-0.9-0.1-1.7-0.5-2.3h0.5v3.5
			c0,0.3,0,0.4,0,0.7c0,0.3,0,0.5,0.1,0.6c0.1,0.5,0.3,0.9,0.7,1.3c0.6,0.6,1.4,0.9,2.2,0.9c0.1,0,0.3,0,0.4,0l2.2-0.3v-2.6
			l-0.4-0.1c-0.3,0-0.5,0.1-0.7,0.1c-0.5,0-0.6-0.3-0.6-0.3c0-0.1,0-0.3,0-0.4c0-0.1,0-0.1,0-0.3v-3.3h1.7l2.6,6.8h2.7l2.6-6.9v6.9
			h3.4c-0.1,0.3-0.3,0.5-0.3,0.9c0,2.1,3.5,2.2,5.1,2.2c1,0,2.6,0,3.5-0.4c1.2-0.4,2.1-1.2,2.1-2.5c0-0.1,0-0.4,0-0.5
			c0.5,0.4,1.3,0.5,2.1,0.5c1.3,0,2.3-0.4,3.1-1.4c0,0.4,0,0.9,0.1,1.3h3.5c-0.3-0.6-0.3-1.3-0.3-1.9v-3.5c0-0.5,0-1,0-1.6h0.6V14
			c0,0.9,0,1.8,0.7,2.6c0.8,0.8,1.7,1,2.6,0.9l2.2-0.3v-2.1c0.9,1.4,2.6,2.3,4.5,2.3c2.1,0,3.9-1,4.7-2.6v2.5h3.6v-3.9
			c0-0.5,0-1.2,0.3-1.6c0.3-0.5,0.9-0.7,1.4-0.7c0.3,0,0.5,0,0.6,0.1V8.1h-0.5C155.2,8,154.6,8.9,154.2,10.2z M89.6,12.7
			c0,0.1,0,0.1,0,0.3c0,0.1,0,0.1,0,0.3v3.5h-2.5v-4.4c0-0.1,0-0.3,0-0.5c0-0.3,0-0.4-0.1-0.7c-0.3-0.5-0.7-0.8-1.3-0.8
			c-1.2,0-1.7,0.8-1.7,2.2v4.2h-2.5V8.9h2.2v1.3h1l0.1-0.4c0.3-0.6,1-1,2.1-1c0.9,0,1.6,0.3,2,0.6c0.7,0.5,0.7,1.4,0.7,2.3V12.7z
			 M93,13v0.6c0,2,1,2.3,1.9,2.3s1.6-0.4,2-1h2.2c-0.6,1.4-1.9,2.2-4,2.2c-1.4,0-2.6-0.4-3.4-1c-0.8-0.7-1.3-1.7-1.3-2.7v-0.7
			c0-1,0.5-2.1,1.2-2.7c0.7-0.8,2-1.3,3.3-1.3c1.8,0,3.1,0.6,3.8,1.9l0,0c0.4,0.6,0.5,1.4,0.7,2.2H93V13z M105.1,10H103v3.9
			c0,0.1,0,0.3,0,0.4c0,0.1,0,0.4,0.1,0.5c0.3,0.5,0.6,0.6,1.3,0.6c0.1,0,0.3,0,0.4,0v1.3l-1.6,0.3c-0.8,0.1-1.6-0.1-2.1-0.8
			c-0.3-0.3-0.4-0.5-0.5-0.9c0-0.1,0-0.4,0-0.5c0-0.1,0-0.4,0-0.5V10h-1.3v-1h1.4l0.3-3h2v3h1.8l0.3,0.8V10z M122,9.8
			c0.8,0,1.2,0.4,1.2,1.2c0,0.6-0.4,1-1,1c-0.8,0-1.2-0.4-1.2-1C120.8,10.4,121.2,9.8,122,9.8z M122.2,18.7c-0.7,0-1.2,0-1.8-0.1
			c-0.4-0.1-0.8-0.3-0.8-0.6c0-0.5,0.5-0.5,0.9-0.5h0.7l1.8,0.1c0.5,0,1,0,1,0.6C124.2,18.8,122.7,18.7,122.2,18.7z M132.1,13.6
			c0,1,0,2.1-1.4,2.1c-0.5,0-0.9-0.3-0.9-0.8c0-1,1.4-1.4,2.3-1.4C132.1,13.5,132.1,13.6,132.1,13.6z M132.2,11.4
			c-1.2,0.1-2.5,0.3-3.6,0.5c-1.3,0.4-2.5,1.3-2.5,2.7c0,0.1,0,0.3,0,0.4c-0.7-0.4-1.4-0.5-2.2-0.5l-2.6-0.1c-0.4,0-1,0-1-0.4
			s0.6-0.4,0.9-0.4h0.4h0.4c1.8,0,4.2-0.5,4.3-2.5h3.4c0.1-0.8,0.8-1,1.4-1C132,10.2,132.2,10.6,132.2,11.4L132.2,11.4z M140.8,14.9
			c-0.9,0-0.8-0.5-0.8-1.2v-3.1h1.7c-0.4,0.6-0.5,1.4-0.5,2.3c0,0.6,0.1,1.3,0.4,1.9C141.3,14.9,141.1,14.9,140.8,14.9z M146.4,15.4
			c-0.7,0-1.3-0.1-1.3-2.6c0-0.9,0-2.5,1.3-2.5s1.3,1.6,1.3,2.5C147.7,15.2,147.1,15.4,146.4,15.4z"/>
		<path d="M94.8,9.4c-1.2,0-1.9,0.8-1.9,2.2v0.7h3.9v-0.8C96.7,10.1,96.1,9.4,94.8,9.4z M93.6,11.5c0-0.9,0.4-1.4,1.3-1.4
			c0.5,0,1.3,0.1,1.3,1.4H93.6z"/>
		<path d="M161.9,3.2c0-0.3-0.1-0.5-0.3-0.6c-0.3-0.1-0.5-0.3-0.9-0.3h-1v2.9h0.5V4h0.5l0.7,1.2h0.6l-0.6-1.3c0.3,0,0.4-0.1,0.5-0.3
			C161.7,3.6,161.9,3.3,161.9,3.2z M161.1,3.6c-0.1,0.1-0.3,0.1-0.5,0.1h-0.5v-1h0.4c0.3,0,0.4,0,0.5,0.1c0.1,0.1,0.1,0.3,0.1,0.4
			C161.4,3.3,161.2,3.5,161.1,3.6z"/>
		<path d="M162.9,2.9c-0.1-0.3-0.3-0.5-0.5-0.8c-0.3-0.3-0.5-0.4-0.8-0.5s-0.7-0.3-1-0.3s-0.6,0-0.9,0.1s-0.5,0.3-0.8,0.5
			s-0.4,0.5-0.5,0.9c-0.1,0.3-0.3,0.7-0.3,1s0,0.6,0.1,0.9c0.1,0.3,0.3,0.5,0.5,0.8c0.3,0.3,0.5,0.4,0.8,0.5
			c0.3,0.1,0.6,0.1,0.9,0.1c0.4,0,0.6,0,0.9-0.1c0.3-0.1,0.6-0.3,0.8-0.5c0.3-0.3,0.4-0.5,0.5-0.8c0.1-0.3,0.1-0.7,0.1-1
			C163.2,3.6,163,3.2,162.9,2.9z M162.7,4.8c-0.1,0.3-0.3,0.5-0.5,0.7c-0.3,0.3-0.5,0.4-0.8,0.5c-0.3,0.1-0.5,0.1-0.9,0.1
			c-0.3,0-0.5,0-0.8-0.1c-0.3-0.1-0.5-0.3-0.8-0.5c-0.3-0.3-0.4-0.4-0.5-0.8c-0.1-0.3-0.1-0.5-0.1-0.8s0-0.5,0.1-0.9
			c0.1-0.3,0.3-0.5,0.5-0.8c0.3-0.3,0.4-0.4,0.6-0.5s0.5-0.1,0.9-0.1c0.3,0,0.6,0,0.9,0.1s0.5,0.3,0.8,0.5s0.4,0.4,0.5,0.6
			c0.1,0.3,0.1,0.5,0.1,0.9C162.8,4.2,162.8,4.5,162.7,4.8z"/>
	</g>
</g>
</svg>
