<?xml version="1.0" encoding="utf-8"?>
<!-- Generator: Adobe Illustrator 21.0.2, SVG Export Plug-In . SVG Version: 6.00 Build 0)  -->
<svg version="1.1" id="Layer_1" xmlns="http://www.w3.org/2000/svg" xmlns:xlink="http://www.w3.org/1999/xlink" x="0px" y="0px"
	 viewBox="0 0 141.9 25" style="enable-background:new 0 0 141.9 25;" xml:space="preserve">
<style type="text/css">
	.st0{fill:#004990;}
</style>
<g>
	<g>
		<g>
			<g>
				<g>
					<g>
						<g>
							<path class="st0" d="M42,18.5l2.3-2.4c-1.2,0.4-2.8,0.8-4.3,0.8c-3.6,0-4.7-2-4.7-3.6c0-2.6,2.2-5.2,5.7-5.2
								c2.2,0,3.3,0.8,3.8,1.4l1.5-3.2c-2-1.3-5-1.3-5.6-1.3c-6.9,0-10.5,4-10.5,8.4c0,3.6,2.7,6.3,7.6,6.3c1.3,0,2.8-0.4,3.4-0.5
								L42,18.5z"/>
						</g>
						<g>
							<path class="st0" d="M28.5,18.5l2.3-2.4c-1.2,0.4-2.8,0.8-4.3,0.8c-3.6,0-4.7-2-4.7-3.6c0-2.6,2.2-5.2,5.7-5.2
								c2.2,0,3.3,0.8,3.8,1.4l1.5-3.2c-2-1.3-5-1.3-5.6-1.3c-6.9,0-10.5,4-10.5,8.4c0,3.6,2.7,6.3,7.6,6.3c1.3,0,2.8-0.4,3.4-0.5
								L28.5,18.5z"/>
						</g>
						<path class="st0" d="M12.3,5.5H5L0.7,19.4h5.1l1.4-4.5C8,15,9,15.1,10.1,15.1c1.4,0,3.4-0.1,5.1-1.3c1.4-0.9,2.3-2.6,2.4-4.1
							C17.7,6.9,14.8,5.5,12.3,5.5z M12.4,10.4c-0.2,0.5-0.8,1.5-2.2,1.6c-0.7,0.1-1.5,0.1-2.1-0.1l1-3.3h1.7
							C11.7,8.6,12.8,9.2,12.4,10.4z"/>
						<path class="st0" d="M60.9,19.4h-5.3l-0.1-6.6l-3.5,6.6H46l0.3-13.9h4.8l-0.6,8.1l4.9-8.1h3.6l0.5,8.1l3.7-8.1h5.2L60.9,19.4z
							"/>
					</g>
				</g>
			</g>
		</g>
		<g>
			<path class="st0" d="M77.9,11.3c0.9,0,1.8,0,2.6,0c1.4,0,2.5,0,3.3,0c-0.1,0.9-0.2,2.2-0.3,4c-0.1,1.7-0.1,3-0.2,3.9
				c-0.8,0.1-1.4,0.2-1.9,0.3c-0.5,0.1-1.1,0.1-1.8,0.2c-0.7,0.1-1.3,0.1-1.9,0.1c-0.9,0-1.8-0.1-2.6-0.2c-0.9-0.1-1.6-0.4-2.3-0.7
				c-0.7-0.3-1.2-0.8-1.7-1.4c-0.5-0.6-0.8-1.2-1.1-2c-0.2-0.8-0.4-1.6-0.4-2.4c0-1.4,0.3-2.7,1-3.8c0.7-1.2,1.6-2.1,2.9-2.8
				c1.2-0.7,2.9-1,4.8-1c1.4,0,3,0.2,4.8,0.5c0,1,0,2.1,0.1,3.3c-0.5-0.2-0.9-0.3-1.2-0.4c-0.3-0.1-0.6-0.2-1-0.2
				c-0.4-0.1-0.8-0.1-1.1-0.2c-0.4,0-0.7-0.1-0.9-0.1c-0.7,0-1.4,0.1-2.1,0.3c-0.6,0.2-1.2,0.5-1.7,1c-0.5,0.4-0.8,1-1,1.6
				c-0.2,0.6-0.3,1.3-0.3,2c0,0.7,0.1,1.3,0.4,1.9c0.3,0.5,0.7,1,1.3,1.2c0.6,0.3,1.2,0.4,1.9,0.4c0.6,0,1.2-0.1,1.9-0.3l0.1-2.2
				c-0.4,0-0.7,0-0.8,0l-1.1,0l0.1-1.2c0-0.1,0-0.3,0-0.6C77.9,12.1,77.9,11.7,77.9,11.3z"/>
			<path class="st0" d="M85.6,19.4l0.2-2.2l0.4-7.6l0.1-4.1c0.9,0,1.6,0,2.1,0c0.6,0,1.3,0,2,0l-0.2,3.1l-0.4,7.7l-0.1,3.1
				c-0.7,0-1.3,0-1.9,0L85.6,19.4z"/>
			<path class="st0" d="M97.7,8.7c0.8,0,1.6,0.1,2.4,0.4c0.8,0.3,1.4,0.6,1.9,1.1c0.5,0.5,0.9,1.1,1.1,1.7c0.2,0.6,0.4,1.3,0.4,2.1
				c0,0.7-0.1,1.4-0.3,2.1c-0.2,0.7-0.6,1.3-1.1,1.8c-0.5,0.6-1.2,1-2,1.3c-0.8,0.3-1.7,0.4-2.6,0.4c-0.8,0-1.6-0.1-2.4-0.4
				c-0.8-0.3-1.4-0.6-1.9-1.1c-0.5-0.5-0.9-1.1-1.2-1.7c-0.3-0.7-0.4-1.4-0.4-2.1c0-0.7,0.1-1.4,0.4-2.1c0.3-0.7,0.7-1.3,1.2-1.8
				c0.5-0.5,1.2-0.9,2-1.2C96,8.9,96.9,8.7,97.7,8.7z M97.7,11.7c-0.4,0-0.8,0.1-1.1,0.3c-0.3,0.2-0.6,0.6-0.7,1
				c-0.2,0.4-0.3,0.9-0.3,1.4c0,0.7,0.2,1.3,0.5,1.7c0.4,0.4,0.8,0.6,1.4,0.6c0.4,0,0.8-0.1,1.1-0.3c0.3-0.2,0.6-0.6,0.7-1
				c0.2-0.4,0.3-0.9,0.3-1.4c0-0.4-0.1-0.8-0.2-1.1c-0.1-0.3-0.3-0.6-0.6-0.8C98.4,11.8,98.1,11.7,97.7,11.7z"/>
			<path class="st0" d="M104.9,19.4c0.2-2.1,0.3-4.6,0.5-7.5c0.1-2.8,0.2-5,0.2-6.4c0.8,0,1.5,0,2.1,0c0.7,0,1.3,0,1.9,0
				c-0.1,1.1-0.2,2.2-0.3,3.5c0.6-0.1,1.1-0.2,1.4-0.2c0.3,0,0.6-0.1,1-0.1c1,0,1.9,0.2,2.6,0.5s1.3,0.9,1.8,1.7
				c0.5,0.8,0.7,1.7,0.7,2.9c0,1.1-0.2,2.2-0.6,3.1c-0.4,0.9-1,1.7-1.7,2.1c-0.7,0.5-1.6,0.7-2.5,0.7c-0.4,0-0.7,0-1-0.1
				c-0.3-0.1-0.6-0.2-0.9-0.3c-0.3-0.1-0.5-0.3-0.7-0.5c-0.2-0.2-0.4-0.4-0.6-0.7l0,1.3c-0.7,0-1.3,0-1.8,0
				C106.5,19.4,105.9,19.4,104.9,19.4z M109.1,11.8c-0.1,1.1-0.1,1.8-0.1,2.1c0,0.6,0.1,1.1,0.2,1.5c0.1,0.4,0.3,0.7,0.6,0.9
				c0.3,0.2,0.6,0.3,1,0.3c0.4,0,0.7-0.1,1-0.3c0.3-0.2,0.5-0.6,0.7-1c0.2-0.4,0.2-0.9,0.2-1.4c0-0.7-0.2-1.3-0.6-1.7
				c-0.4-0.4-0.9-0.7-1.6-0.7C110.2,11.6,109.7,11.7,109.1,11.8z"/>
			<path class="st0" d="M119.2,12c0.1-0.7,0.2-1.1,0.2-1.4c0-0.3,0.1-0.7,0.2-1.2c1.9-0.4,3.5-0.7,4.9-0.7c0.8,0,1.5,0.1,2.1,0.3
				c0.6,0.2,1.2,0.5,1.5,0.9c0.4,0.4,0.5,1,0.5,1.7c0,0.4-0.1,1.2-0.2,2.6c-0.1,1.3-0.2,3.1-0.2,5.2c-0.6,0-1.3,0-1.9,0
				c-0.6,0-1.3,0-2,0c0.1-0.7,0.2-2.3,0.3-4.6c-0.3,0.1-0.4,0.2-0.6,0.3c-0.1,0.1-0.4,0.1-0.7,0.2c-0.4,0.1-0.6,0.2-0.8,0.3
				c-0.2,0.1-0.4,0.2-0.5,0.3c-0.1,0.1-0.3,0.2-0.3,0.4c-0.1,0.1-0.1,0.3-0.1,0.4c0,0.2,0.1,0.4,0.3,0.6c0.2,0.2,0.5,0.2,0.8,0.2
				c0.1,0,0.3,0,0.4,0c0.2,0,0.4-0.1,0.6-0.2c-0.2,0.5-0.4,1.3-0.7,2.3c-0.6,0.1-1.1,0.1-1.6,0.1c-0.8,0-1.5-0.1-2-0.4
				c-0.5-0.2-1-0.6-1.3-1.1c-0.3-0.5-0.4-1-0.4-1.6c0-0.3,0.1-0.6,0.2-0.9c0.1-0.3,0.3-0.6,0.5-0.9c0.2-0.3,0.5-0.5,0.8-0.7
				c0.3-0.2,0.7-0.4,1.3-0.6c0.5-0.2,1.2-0.4,2-0.5c0.3-0.1,0.7-0.1,0.9-0.2c0.3-0.1,0.5-0.1,0.6-0.2c0.1-0.1,0.2-0.1,0.3-0.2
				c0.1-0.1,0.1-0.2,0.2-0.2c0-0.1,0.1-0.2,0.1-0.3c0-0.3-0.1-0.5-0.3-0.6c-0.2-0.1-0.5-0.2-0.9-0.2C122.2,11,120.8,11.3,119.2,12z"
				/>
			<path class="st0" d="M130.4,19.4l0.2-2.2l0.4-7.6l0.1-4.1c0.9,0,1.6,0,2.1,0c0.6,0,1.3,0,2,0L135,8.6l-0.4,7.7l-0.1,3.1
				c-0.7,0-1.3,0-1.9,0L130.4,19.4z"/>
		</g>
	</g>
	<path class="st0" d="M135.9,3.7c0-1.5,1.2-2.8,2.8-2.8c1.5,0,2.8,1.3,2.8,2.8c0,1.5-1.2,2.8-2.8,2.8C137.2,6.5,135.9,5.3,135.9,3.7
		z M141.1,3.7c0-1.3-1-2.4-2.4-2.4c-1.3,0-2.4,1-2.4,2.4c0,1.3,1,2.4,2.4,2.4C140,6.1,141.1,5.1,141.1,3.7z M138.8,2.1
		c1,0,1.2,0.5,1.2,1c0,0.4-0.3,0.8-0.8,0.9l0.7,1.6h-0.5L138.7,4H138v1.6h-0.4V2.1H138.8z M138,3.6h0.6c0.7,0,0.8-0.2,0.8-0.6
		c0-0.4-0.3-0.6-0.7-0.6H138V3.6z"/>
</g>
</svg>
