<?xml version="1.0" encoding="utf-8"?>
<!-- Generator: Adobe Illustrator 21.0.2, SVG Export Plug-In . SVG Version: 6.00 Build 0)  -->
<svg version="1.1" id="Layer_1" xmlns="http://www.w3.org/2000/svg" xmlns:xlink="http://www.w3.org/1999/xlink" x="0px" y="0px"
	 viewBox="0 0 28 28" style="enable-background:new 0 0 28 28;" xml:space="preserve">
<style type="text/css">
	.st0{fill:#68747B;}
</style>
<g>
	<path class="st0" d="M18.7,28c-5.2,0-9.4-4.2-9.4-9.4s4.3-9.4,9.4-9.3c5.2,0.1,9.4,4.3,9.3,9.4C28,23.9,23.9,28,18.7,28z
		 M26.2,18.6c0-4.1-3.3-7.4-7.4-7.4c-4.2,0-7.5,3.3-7.5,7.5c0,4.1,3.4,7.4,7.4,7.4C22.8,26.2,26.2,22.7,26.2,18.6z"/>
	<path class="st0" d="M8.1,22.4c-1.6,0-3.1,0-4.5,0c-0.5,0-1,0-1.6,0c-1.2,0-2-0.8-2-2c0-2.6,0-5.2,0-7.8C0,9.1,0,5.5,0,2
		c0.1-1.2,0.9-2,2.2-2c5.5,0,10.9,0,16.4,0c1.3,0,2,0.8,2,2c0,1.7,0,3.5,0,5.2c0,0.1,0,0.3,0,0.3c-0.6-0.1-1.2-0.1-1.8-0.2
		c0-1,0-1.8,0-2.8s0-1.8,0-2.8c-5.6,0-11.2,0-16.8,0C2,8,2,14.2,2,20.4c0.2,0,0.3,0,0.4,0c1.7,0,3.3,0,5.1,0c0.3,0,0.3,0.1,0.3,0.3
		C7.9,21.3,8,21.9,8.1,22.4z"/>
	<path class="st0" d="M6.6,5.6c0-0.6,0-1.2,0-1.8c3.8,0,7.4,0,11.2,0c0,0.6,0,1.2,0,1.8C14.1,5.6,10.3,5.6,6.6,5.6z"/>
	<path class="st0" d="M14.2,7.5c-0.3,0.2-0.8,0.3-1,0.6c-0.5,0.3-1,0.7-1.5,1c-0.2,0.2-0.3,0.2-0.6,0.2c-1.3,0-2.6,0-3.9,0
		c-0.1,0-0.3,0-0.4,0c0-0.6,0-1.2,0-1.8C9.1,7.5,11.6,7.5,14.2,7.5z"/>
	<path class="st0" d="M6.6,13c0-0.6,0-1.2,0-1.8c1,0,2,0,3,0c-0.3,0.6-0.6,1.1-1,1.7C8.7,13,8.6,13,8.5,13C7.9,13,7.3,13,6.6,13z"/>
	<path class="st0" d="M2.9,3.8c0.6,0,1.2,0,1.8,0c0,0.6,0,1.2,0,1.8c-0.6,0-1.2,0-1.8,0C2.9,5,2.9,4.4,2.9,3.8z"/>
	<path class="st0" d="M4.7,7.5c0,0.6,0,1.2,0,1.8c-0.6,0-1.2,0-1.8,0c0-0.6,0-1.2,0-1.8C3.5,7.5,4.1,7.5,4.7,7.5z"/>
	<path class="st0" d="M2.9,11.2c0.6,0,1.2,0,1.8,0c0,0.6,0,1.2,0,1.8c-0.6,0-1.2,0-1.8,0C2.9,12.4,2.9,11.8,2.9,11.2z"/>
	<path class="st0" d="M2.9,16.8c0-0.6,0-1.2,0-1.8c0.6,0,1.2,0,1.8,0c0,0.6,0,1.2,0,1.8C4.1,16.8,3.5,16.8,2.9,16.8z"/>
	<path class="st0" d="M6.6,15c0.4,0,0.9,0,1.2,0c-0.1,0.6-0.2,1.2-0.3,1.8c-0.3,0-0.6,0-1,0C6.6,16.2,6.6,15.6,6.6,15z"/>
	<path class="st0" d="M19.7,18.6c0-0.2,0-0.3,0-0.3c0-1.4,0-2.8,0-4.2c0-0.6,0.4-1,1-1c0.5,0.1,0.8,0.4,0.8,1c0,1.3,0,2.6,0,3.9
		c0,0.5,0,1,0,1.5c0,0.6-0.3,1-1,1c-1.5,0-3,0-4.5,0c-0.6,0-1-0.4-1-1s0.4-1,1-1c1.1,0,2.2,0,3.3,0C19.4,18.6,19.5,18.6,19.7,18.6z"
		/>
</g>
</svg>
