<?xml version="1.0" encoding="utf-8"?>
<!-- Generator: Adobe Illustrator 21.0.2, SVG Export Plug-In . SVG Version: 6.00 Build 0)  -->
<svg version="1.1" id="Layer_1" xmlns="http://www.w3.org/2000/svg" xmlns:xlink="http://www.w3.org/1999/xlink" x="0px" y="0px"
	 viewBox="0 0 156 25" style="enable-background:new 0 0 156 25;" xml:space="preserve">
<style type="text/css">
	.st0{fill:#4C297D;}
	.st1{fill:#929497;}
	.st2{fill:#231F20;}
</style>
<g>
	<path class="st0" d="M4.6,14.4c0,1.9,1,2.5,3.2,2.5c1.8,0,2.6-0.8,2.6-1.7c0-1.7-2.6-1.9-4.4-2.6C3.8,11.8,2,10.7,2,8.1
		c0-4,3.6-5.6,7.1-5.6c3.7,0,6.8,1.4,6.7,5.6h-4.5c0-0.7-0.2-1.1-0.6-1.4c-0.4-0.3-1-0.5-1.8-0.5c-1.1,0-2.3,0.5-2.3,1.6
		c0,1.1,0.7,1.2,3.2,1.8c2.4,0.7,5.2,1.9,5.2,5.3c0,3.1-2.8,5.7-7.9,5.7c-4.1,0-7-2.1-7-6.2H4.6z"/>
	<path class="st0" d="M17.6,7.6h4l-0.3,1.6h0c0.9-1.2,2.5-2,4.2-2c1.5,0,2.9,0.5,3.2,2.2C29.8,8,31,7.3,32.9,7.3
		c2.3,0,4.1,1,4.1,3.4c0,1-0.2,1.9-0.3,2.5L35,20.3h-4.1l1.4-6.7c0.1-0.5,0.3-1.2,0.3-1.8c0-0.9-0.6-1.3-1.4-1.3
		c-1.6,0-2.3,1.3-2.7,3.1L27,20.3h-4.1l1.4-6.5c0.1-0.6,0.3-1.4,0.3-2c0-0.7-0.4-1.3-1.3-1.3c-1.5,0-2.2,0.9-2.6,2.6l-1.5,7.2h-4.1
		L17.6,7.6z"/>
	<path class="st0" d="M38.4,11.5c0.7-3.3,3.1-4.3,6.2-4.3c3.5,0,5.8,0.9,5.8,3.3c0,1.7-1,5.2-1.2,6.4c-0.2,0.9-0.4,1.7-0.4,2.4
		c0,0.4,0.1,0.8,0.2,1h-4.1c-0.1-0.6-0.1-0.6-0.1-1.2h0c-0.8,1.1-2,1.6-3.8,1.6c-2.4,0-4.1-1-4.1-3.6c0-3.4,3-4,6.3-4.3
		c1.4-0.1,3.4,0,3.4-1.6c0-0.7-0.5-1.2-1.8-1.2c-1.3,0-2.1,0.4-2.3,1.6H38.4z M42.6,18.1c2.5,0,3-2.5,3.1-3.6h0
		c-1,0.9-4.8-0.1-4.8,2.3C40.9,17.8,41.8,18.1,42.6,18.1z"/>
	<path class="st0" d="M52.3,7.6h4l-0.5,2.1h0c0.9-1.5,2.3-2.4,4-2.4c0.6,0,1,0,1.4,0.2l-0.8,3.7c-0.6-0.1-1.1-0.2-1.9-0.2
		c-2.3,0-3.1,1.4-3.6,3.6l-1.2,5.8h-4.1L52.3,7.6z"/>
	<path class="st0" d="M68.3,7.6h2.6l-0.6,2.7h-2.6l-1,4.8c-0.1,0.6-0.2,1.1-0.2,1.5c0,0.6,0.6,0.7,1.3,0.7c0.4,0,0.9,0,1.3-0.1
		l-0.6,3.1c-0.8,0.1-1.6,0.1-2.4,0.1c-1.9,0-3.9-0.3-3.9-2.2c0-0.9,0.2-1.9,0.5-3.3l1-4.6h-2.1L62,7.6h2.1l0.8-3.8H69L68.3,7.6z"/>
	<path class="st1" d="M78,2.9h4.5l-2.8,13.5h8.1l-0.8,3.9H74.4L78,2.9z"/>
	<path class="st1" d="M91,7.6h4.1l-2.6,12.7h-4.1L91,7.6z M95.5,6h-4.1L92,2.9h4.1L95.5,6z"/>
	<path class="st1" d="M95.8,7.6h4.2l0.5,8.9h0.1l4.1-8.9h4.3l-6.8,12.7h-4.8L95.8,7.6z"/>
	<path class="st1" d="M109.8,7.6h4.1l-2.6,12.7h-4.1L109.8,7.6z M114.3,6h-4.1l0.7-3.2h4.1L114.3,6z"/>
	<path class="st1" d="M115.2,7.6h4.1L119,9.2h0c0.6-0.9,2.1-1.9,4.4-1.9c2.3,0,3.6,1.4,3.6,3.6c0,0.8-0.3,2.1-0.4,2.7l-1.5,6.7H121
		l1.4-6.7c0.1-0.6,0.2-1.1,0.2-1.6c0-1-0.6-1.5-1.5-1.5c-2.6,0-2.9,2.4-3.3,4.5l-1.1,5.4h-4.1L115.2,7.6z"/>
	<path class="st1" d="M131,20.7c0,0.5,0.2,0.9,0.5,1.1c0.3,0.2,0.7,0.4,1.2,0.4c2.6,0,2.6-2,3.1-4h0c-0.6,1-2.1,1.5-3.3,1.5
		c-2.9,0-4.8-2-4.8-4.9c0-3.6,2.1-7.5,6.1-7.5c1.7,0,3.2,0.5,3.9,2.1h0l0.3-1.8h4l-2.1,10.2c-1.1,5.3-2.8,6.9-7.5,6.9
		c-2.7,0-5.6-0.8-5.6-4.1H131z M136.9,13c0-1.5-0.6-2.6-2-2.6c-2.1,0-3.1,2.1-3.1,4c0,1.3,0.5,2.5,2,2.5
		C135.9,16.9,136.9,14.9,136.9,13z"/>
	<g>
		<path class="st2" d="M142.9,0.7h4.3v0.4h-1.9V6h-0.5V1.2h-1.9V0.7z"/>
		<path class="st2" d="M147.7,0.7h0.8l1.9,4.6l1.9-4.6h0.8V6h-0.5V1.4h0L150.6,6h-0.5l-1.9-4.5h0V6h-0.5V0.7z"/>
	</g>
</g>
</svg>
