<?xml version="1.0" encoding="utf-8"?>
<!-- Generator: Adobe Illustrator 21.0.2, SVG Export Plug-In . SVG Version: 6.00 Build 0)  -->
<svg version="1.1" id="Layer_1" xmlns="http://www.w3.org/2000/svg" xmlns:xlink="http://www.w3.org/1999/xlink" x="0px" y="0px"
	 viewBox="0 0 271.5 108.9" style="enable-background:new 0 0 271.5 108.9;" xml:space="preserve">
<style type="text/css">
	.st0{fill:#E78844;}
	.st1{fill:#FFFFFF;}
	.st2{fill:#F49800;}
</style>
<g id="XMLID_1300_">
	<path id="XMLID_1302_" d="M20.2,64.9l3.1-14.2h2.9l-1.2,5.4h5.5l1.2-5.4h2.9l-3.1,14.2h-2.9l1.4-6.3h-5.5l-1.4,6.3H20.2z"/>
	<path id="XMLID_1306_" d="M43,63.6c-1.1,1.1-2.6,1.6-4.4,1.6c-1.8,0-3-0.5-3.7-1.6c-0.6-1.1-0.8-2.4-0.5-4c0.3-1.5,1.1-2.8,2.2-3.9
		c1.1-1.1,2.6-1.7,4.4-1.7c1.8,0,3,0.6,3.7,1.7c0.6,1.1,0.8,2.4,0.5,3.9C44.8,61.2,44.1,62.5,43,63.6z M41.1,62.1
		c0.6-0.6,0.9-1.4,1.2-2.4c0.2-1.1,0.2-1.9-0.1-2.4c-0.3-0.6-0.9-0.9-1.7-0.9c-0.8,0-1.5,0.3-2,0.9c-0.6,0.6-0.9,1.4-1.2,2.4
		c-0.2,1.1-0.2,1.9,0.1,2.4c0.3,0.6,0.9,0.9,1.7,0.9C39.9,62.9,40.6,62.6,41.1,62.1z"/>
	<path id="XMLID_1312_" d="M56.3,55c0.6,0.6,0.7,1.5,0.4,2.8l-1.5,7.1h-2.8l1.4-6.4c0.1-0.6,0.1-1,0.1-1.3c-0.1-0.5-0.6-0.8-1.3-0.8
		c-0.9,0-1.6,0.4-2.1,1.2c-0.3,0.4-0.5,1-0.6,1.6l-1.2,5.7h-2.7L48,54.4h2.6l-0.3,1.5c0.5-0.5,0.9-0.9,1.2-1.2
		c0.7-0.4,1.4-0.6,2.3-0.6C54.9,54.1,55.8,54.4,56.3,55z"/>
	<path id="XMLID_1316_" d="M65,54.4c0.6,0.3,1,0.8,1.3,1.5l0.3-1.5h2.7l-2.1,10c-0.3,1.4-0.7,2.4-1.3,3.1c-1,1.2-2.7,1.8-4.9,1.8
		c-1.3,0-2.4-0.3-3.1-0.8c-0.7-0.5-1-1.3-0.9-2.4h3c0,0.3,0.1,0.6,0.2,0.7c0.2,0.3,0.7,0.4,1.4,0.4c1,0,1.7-0.3,2.2-1
		c0.3-0.4,0.6-1.1,0.8-2.1l0.1-0.7c-0.4,0.5-0.7,0.8-1.1,1c-0.6,0.4-1.4,0.6-2.3,0.6c-1.3,0-2.3-0.5-2.9-1.4
		c-0.6-0.9-0.7-2.2-0.4-3.9c0.3-1.6,1-2.9,2-3.9c1-1.1,2.2-1.6,3.6-1.6C64.2,54.1,64.6,54.2,65,54.4z M64.3,61.9
		c0.5-0.5,0.9-1.3,1.2-2.3c0.2-1,0.2-1.8-0.1-2.3c-0.3-0.5-0.8-0.8-1.5-0.8c-1,0-1.7,0.5-2.3,1.4c-0.3,0.5-0.5,1.1-0.7,1.8
		c-0.1,0.6-0.1,1.2,0,1.6c0.2,0.9,0.7,1.3,1.7,1.3C63.1,62.6,63.7,62.4,64.3,61.9z"/>
	<path id="XMLID_1322_" d="M77.9,50.7h2.9l-1.3,5.9l6.7-5.9h3.8l-7,5.8l4.3,8.4h-3.8l-3-6.2l-1.7,1.5l-1,4.8h-2.9L77.9,50.7z"/>
	<path id="XMLID_1326_" d="M97.5,63.6c-1.1,1.1-2.6,1.6-4.4,1.6c-1.8,0-3-0.5-3.7-1.6c-0.6-1.1-0.8-2.4-0.5-4
		c0.3-1.5,1.1-2.8,2.2-3.9c1.1-1.1,2.6-1.7,4.4-1.7c1.8,0,3,0.6,3.7,1.7c0.6,1.1,0.8,2.4,0.5,3.9C99.4,61.2,98.6,62.5,97.5,63.6z
		 M95.7,62.1c0.6-0.6,0.9-1.4,1.2-2.4c0.2-1.1,0.2-1.9-0.1-2.4c-0.3-0.6-0.9-0.9-1.7-0.9c-0.8,0-1.5,0.3-2,0.9
		c-0.6,0.6-0.9,1.4-1.2,2.4c-0.2,1.1-0.2,1.9,0.1,2.4c0.3,0.6,0.9,0.9,1.7,0.9C94.4,62.9,95.1,62.6,95.7,62.1z"/>
	<path id="XMLID_1332_" d="M110.9,55c0.6,0.6,0.7,1.5,0.4,2.8l-1.5,7.1H107l1.4-6.4c0.1-0.6,0.1-1,0.1-1.3c-0.1-0.5-0.6-0.8-1.3-0.8
		c-0.9,0-1.6,0.4-2.1,1.2c-0.3,0.4-0.5,1-0.6,1.6l-1.2,5.7h-2.7l2.3-10.5h2.6l-0.3,1.5c0.5-0.5,0.9-0.9,1.2-1.2
		c0.7-0.4,1.4-0.6,2.3-0.6C109.5,54.1,110.3,54.4,110.9,55z"/>
	<path id="XMLID_1336_" d="M119.5,54.4c0.6,0.3,1,0.8,1.3,1.5l0.3-1.5h2.7l-2.1,10c-0.3,1.4-0.7,2.4-1.3,3.1c-1,1.2-2.7,1.8-4.9,1.8
		c-1.3,0-2.4-0.3-3.1-0.8c-0.7-0.5-1-1.3-0.9-2.4h3c0,0.3,0.1,0.6,0.2,0.7c0.2,0.3,0.7,0.4,1.4,0.4c1,0,1.7-0.3,2.2-1
		c0.3-0.4,0.6-1.1,0.8-2.1l0.1-0.7c-0.4,0.5-0.7,0.8-1.1,1c-0.6,0.4-1.4,0.6-2.3,0.6c-1.3,0-2.3-0.5-2.9-1.4
		c-0.6-0.9-0.7-2.2-0.4-3.9c0.3-1.6,1-2.9,2-3.9c1-1.1,2.2-1.6,3.6-1.6C118.7,54.1,119.2,54.2,119.5,54.4z M118.8,61.9
		c0.5-0.5,0.9-1.3,1.2-2.3c0.2-1,0.2-1.8-0.1-2.3c-0.3-0.5-0.8-0.8-1.5-0.8c-1,0-1.7,0.5-2.3,1.4c-0.3,0.5-0.5,1.1-0.7,1.8
		c-0.1,0.6-0.1,1.2,0,1.6c0.2,0.9,0.7,1.3,1.7,1.3C117.7,62.6,118.3,62.4,118.8,61.9z"/>
	<path id="XMLID_1342_" d="M132.4,60.5c0,0.6,0,1.1,0.2,1.5c0.4,0.6,1.1,0.9,2.3,0.9c0.7,0,1.3-0.1,1.8-0.2c0.9-0.3,1.4-0.8,1.6-1.6
		c0.1-0.5,0-0.8-0.4-1.1c-0.4-0.3-1-0.5-1.8-0.7l-1.5-0.3c-1.4-0.3-2.4-0.7-2.9-1.1c-0.8-0.7-1.1-1.7-0.8-3.1c0.3-1.3,1-2.3,2.1-3.2
		c1.1-0.8,2.6-1.3,4.4-1.3c1.5,0,2.7,0.4,3.6,1.2c0.9,0.8,1.2,1.9,0.9,3.5h-2.8c0.1-0.9-0.1-1.5-0.7-1.8c-0.4-0.2-1-0.4-1.7-0.4
		c-0.8,0-1.4,0.2-2,0.5c-0.5,0.3-0.9,0.7-1,1.3c-0.1,0.5,0,0.9,0.4,1.1c0.3,0.2,0.8,0.4,1.7,0.6l2.3,0.6c1,0.3,1.8,0.6,2.2,1
		c0.7,0.7,0.9,1.6,0.6,2.9c-0.3,1.3-1,2.4-2.2,3.2c-1.2,0.9-2.7,1.3-4.5,1.3c-1.9,0-3.2-0.4-4.1-1.3c-0.9-0.8-1.2-2-0.8-3.5H132.4z"
		/>
	<path id="XMLID_1346_" d="M151,54.6c0.7,0.3,1.1,0.8,1.5,1.6c0.3,0.6,0.4,1.3,0.4,2.2c0,0.5-0.2,1.2-0.4,2.1h-7.6
		c-0.2,1.1,0,1.8,0.6,2.2c0.4,0.3,0.8,0.4,1.4,0.4c0.6,0,1.2-0.2,1.6-0.5c0.2-0.2,0.5-0.4,0.7-0.7h2.8c-0.2,0.6-0.7,1.3-1.4,1.9
		c-1.2,1-2.6,1.5-4.3,1.5c-1.4,0-2.5-0.4-3.4-1.3c-0.9-0.9-1.1-2.3-0.7-4.2c0.4-1.8,1.2-3.2,2.3-4.2c1.2-1,2.5-1.5,4-1.5
		C149.6,54.1,150.4,54.3,151,54.6z M146.4,57c-0.5,0.4-0.8,0.9-1.1,1.6h4.7c0.1-0.7,0-1.3-0.4-1.7c-0.4-0.4-0.9-0.6-1.5-0.6
		C147.5,56.4,146.9,56.6,146.4,57z"/>
	<path id="XMLID_1352_" d="M161.4,54.4h2.9l-6,10.5h-2.9l-1.5-10.5h3.1l0.5,7.8L161.4,54.4z"/>
	<path id="XMLID_1356_" d="M172.4,54.6c0.7,0.3,1.1,0.8,1.5,1.6c0.3,0.6,0.4,1.3,0.4,2.2c0,0.5-0.2,1.2-0.4,2.1h-7.6
		c-0.2,1.1,0,1.8,0.6,2.2c0.4,0.3,0.8,0.4,1.4,0.4c0.6,0,1.2-0.2,1.6-0.5c0.2-0.2,0.5-0.4,0.7-0.7h2.8c-0.2,0.6-0.7,1.3-1.4,1.9
		c-1.2,1-2.6,1.5-4.3,1.5c-1.4,0-2.5-0.4-3.4-1.3c-0.9-0.9-1.1-2.3-0.7-4.2c0.4-1.8,1.2-3.2,2.3-4.2c1.2-1,2.5-1.5,4-1.5
		C171,54.1,171.8,54.3,172.4,54.6z M167.8,57c-0.5,0.4-0.8,0.9-1.1,1.6h4.7c0.1-0.7,0-1.3-0.4-1.7c-0.4-0.4-0.9-0.6-1.5-0.6
		C168.9,56.4,168.3,56.6,167.8,57z"/>
	<path id="XMLID_1362_" d="M184.7,55c0.6,0.6,0.7,1.5,0.4,2.8l-1.5,7.1h-2.8l1.4-6.4c0.1-0.6,0.1-1,0.1-1.3
		c-0.1-0.5-0.6-0.8-1.3-0.8c-0.9,0-1.6,0.4-2.1,1.2c-0.3,0.4-0.5,1-0.6,1.6l-1.2,5.7h-2.7l2.3-10.5h2.6l-0.3,1.5
		c0.5-0.5,0.9-0.9,1.2-1.2c0.7-0.4,1.4-0.6,2.3-0.6C183.3,54.1,184.1,54.4,184.7,55z"/>
	<path id="XMLID_1366_" d="M188.7,61.5c0,0.5,0,0.8,0.2,1c0.3,0.4,0.8,0.5,1.8,0.5c0.5,0,1-0.1,1.3-0.2c0.4-0.2,0.6-0.4,0.6-0.7
		c0.1-0.3,0-0.5-0.2-0.7c-0.2-0.2-1.1-0.4-2.7-0.8c-1.1-0.3-1.9-0.7-2.3-1.1c-0.4-0.4-0.5-1.1-0.3-1.9c0.2-1,0.8-1.8,1.7-2.5
		c0.9-0.7,2-1,3.4-1c1.3,0,2.3,0.3,3,0.8c0.7,0.5,1,1.4,0.8,2.7h-2.7c0-0.4,0-0.6-0.1-0.8c-0.2-0.4-0.7-0.6-1.4-0.6
		c-0.6,0-1,0.1-1.3,0.3c-0.3,0.2-0.5,0.4-0.5,0.7c-0.1,0.3,0,0.5,0.3,0.7c0.2,0.1,1.1,0.4,2.7,0.8c1,0.3,1.8,0.6,2.2,1.2
		c0.4,0.5,0.5,1.2,0.4,2c-0.2,1-0.8,1.9-1.7,2.6c-0.9,0.7-2.2,1-3.8,1c-1.6,0-2.8-0.3-3.4-1c-0.6-0.7-0.8-1.6-0.6-2.7H188.7z"/>
	<path id="XMLID_1370_" d="M196,67.2c0.6-0.2,1-0.4,1.4-0.8c0.3-0.4,0.6-0.9,0.8-1.5h-1.7l0.6-2.9h2.9l-0.5,2.5
		c-0.1,0.4-0.3,0.9-0.5,1.4c-0.2,0.5-0.5,0.9-0.9,1.2c-0.4,0.4-0.9,0.7-1.4,0.8c-0.5,0.2-0.8,0.3-1,0.3L196,67.2z"/>
	<path id="XMLID_1374_" d="M207.7,62.1c0.6-0.9,1.7-1.9,3.4-3c1.5-0.9,2.4-1.6,2.9-1.9c0.7-0.6,1.1-1.3,1.3-2
		c0.1-0.6,0.1-1.1-0.2-1.5c-0.2-0.4-0.7-0.6-1.3-0.6c-0.8,0-1.5,0.3-1.9,0.9c-0.2,0.4-0.5,0.9-0.7,1.7h-2.7c0.3-1.2,0.7-2.2,1.3-2.9
		c1-1.4,2.5-2.1,4.3-2.1c1.5,0,2.6,0.4,3.2,1.2c0.7,0.8,0.9,1.9,0.6,3.3c-0.2,1-0.7,2-1.5,2.8c-0.5,0.5-1.3,1.1-2.4,1.8l-1.3,0.8
		c-0.8,0.5-1.3,0.8-1.6,1.1c-0.3,0.2-0.6,0.5-0.8,0.8h6.1l-0.5,2.4h-9.5C206.7,63.9,207.1,63,207.7,62.1z"/>
	<path id="XMLID_1378_" d="M228.3,52.7c0.4,1.3,0.4,3-0.1,5.3c-0.5,2.3-1.2,4.1-2.2,5.3c-1,1.2-2.4,1.9-4.1,1.9
		c-1.8,0-2.9-0.6-3.3-1.9s-0.4-3,0.1-5.3c0.5-2.3,1.2-4.1,2.2-5.3c1-1.3,2.4-1.9,4.1-1.9C226.7,50.8,227.9,51.4,228.3,52.7z
		 M221,61.7c0.1,0.9,0.5,1.3,1.3,1.3c0.8,0,1.4-0.4,1.9-1.3c0.4-0.9,0.8-2.1,1.2-3.7c0.4-1.7,0.5-2.9,0.4-3.7
		c-0.1-0.8-0.5-1.2-1.3-1.2c-0.8,0-1.4,0.4-1.9,1.2c-0.4,0.8-0.8,2.1-1.2,3.7C221.1,59.6,220.9,60.9,221,61.7z"/>
	<path id="XMLID_1384_" d="M230.7,55.2l0.4-1.9c0.9,0,1.5-0.1,1.8-0.2c0.6-0.1,1.1-0.4,1.5-0.7c0.3-0.3,0.5-0.6,0.8-1
		c0.1-0.3,0.2-0.4,0.2-0.6h2.3l-3,14h-2.8l2.1-9.6H230.7z"/>
	<path id="XMLID_1388_" d="M250.8,53.2c-0.5,0.4-1.2,1.1-2.2,2.2c-1,1-1.8,2.1-2.5,3.2c-0.6,0.9-1.2,1.9-1.7,3.2
		c-0.6,1.3-1,2.3-1.1,3.1h-2.8c0.6-2.5,2-5.1,4.1-7.8c1.4-1.7,2.5-2.8,3.3-3.5h-6.9l0.6-2.5h9.8L250.8,53.2z"/>
</g>
<g id="XMLID_1216_">
	<path id="XMLID_1218_" class="st0" d="M53,94.2c-1.4,1.2-3.2,1.8-5.3,1.8c-2.1,0-3.7-0.6-4.5-1.8c-1.2-1.4-1.5-3.5-0.9-6.2
		c0.6-2.8,1.8-4.8,3.6-6.2c1.4-1.2,3.2-1.8,5.3-1.8c2.1,0,3.7,0.6,4.5,1.8c1.2,1.4,1.5,3.4,0.9,6.2C56,90.7,54.8,92.8,53,94.2z
		 M51.5,92c0.9-0.9,1.6-2.2,1.9-3.9c0.4-1.7,0.3-3-0.3-3.9c-0.5-0.9-1.4-1.4-2.7-1.4c-1.2,0-2.3,0.5-3.3,1.4c-0.9,0.9-1.6,2.2-2,3.9
		c-0.4,1.7-0.3,3,0.3,3.9c0.5,0.9,1.4,1.4,2.7,1.4C49.5,93.3,50.6,92.9,51.5,92z"/>
	<path id="XMLID_1224_" class="st0" d="M67.9,85.1c0.6,0.6,0.7,1.6,0.4,3l-1.6,7.5h-3l1.5-6.8c0.1-0.6,0.1-1,0.1-1.3
		c-0.2-0.6-0.6-0.9-1.4-0.9c-1,0-1.7,0.4-2.3,1.3c-0.3,0.4-0.5,1-0.6,1.7l-1.3,6h-2.9l2.4-11.1h2.8l-0.3,1.6c0.5-0.6,0.9-1,1.3-1.2
		c0.7-0.4,1.5-0.7,2.4-0.7C66.5,84.2,67.3,84.5,67.9,85.1z"/>
	<path id="XMLID_1228_" class="st0" d="M72,95.6h-2.9l3.2-15h2.9L72,95.6z"/>
	<path id="XMLID_1232_" class="st0" d="M76.9,84.5h2.9l-2.4,11.1h-2.9L76.9,84.5z M80.1,83.1h-2.9l0.6-2.7h2.9L80.1,83.1z"/>
	<path id="XMLID_1238_" class="st0" d="M91,85.1c0.6,0.6,0.7,1.6,0.4,3l-1.6,7.5h-3l1.5-6.8c0.1-0.6,0.1-1,0.1-1.3
		c-0.2-0.6-0.6-0.9-1.4-0.9c-1,0-1.7,0.4-2.3,1.3c-0.3,0.4-0.5,1-0.6,1.7l-1.3,6h-2.9l2.4-11.1H85l-0.3,1.6c0.5-0.6,0.9-1,1.3-1.2
		c0.7-0.4,1.5-0.7,2.4-0.7C89.5,84.2,90.4,84.5,91,85.1z"/>
	<path id="XMLID_1242_" class="st0" d="M101.7,84.7c0.7,0.3,1.2,0.9,1.6,1.6c0.3,0.7,0.4,1.4,0.4,2.3c0,0.5-0.2,1.2-0.4,2.2h-8.1
		c-0.2,1.1,0,1.9,0.7,2.3c0.4,0.3,0.9,0.4,1.5,0.4c0.7,0,1.2-0.2,1.7-0.5c0.3-0.2,0.5-0.4,0.8-0.8h3c-0.2,0.7-0.7,1.3-1.5,2
		c-1.2,1.1-2.7,1.6-4.5,1.6c-1.5,0-2.7-0.5-3.6-1.4c-0.9-0.9-1.2-2.4-0.7-4.4c0.4-1.9,1.2-3.4,2.5-4.4c1.2-1,2.7-1.5,4.3-1.5
		C100.2,84.2,101,84.3,101.7,84.7z M96.8,87.2c-0.5,0.4-0.9,1-1.1,1.7h5c0.1-0.8,0-1.4-0.4-1.8c-0.4-0.4-0.9-0.6-1.6-0.6
		C98,86.6,97.3,86.8,96.8,87.2z"/>
	<path id="XMLID_1248_" class="st0" d="M111.7,91c-0.1,0.6-0.1,1.1,0,1.5c0.2,0.7,0.8,1.1,1.7,1.1c0.6,0,1.1-0.2,1.6-0.6
		c0.5-0.4,0.8-1,1-1.7c0.2-1,0-1.6-0.8-1.9c-0.4-0.2-1.1-0.3-2.1-0.3l0.4-2.1c0.9,0,1.6-0.1,2-0.3c0.7-0.3,1.2-0.9,1.3-1.7
		c0.1-0.6,0.1-1-0.2-1.4c-0.3-0.4-0.7-0.5-1.3-0.5c-0.7,0-1.2,0.2-1.6,0.7c-0.4,0.4-0.7,1-0.8,1.7h-2.7c0.2-0.7,0.5-1.4,0.8-2.1
		c0.4-0.6,0.9-1.1,1.5-1.6c0.5-0.3,1-0.6,1.5-0.8s1.2-0.3,2-0.3c1.4,0,2.5,0.4,3.2,1.1c0.7,0.7,0.9,1.7,0.7,2.9
		c-0.2,0.9-0.6,1.6-1.2,2.2c-0.4,0.4-0.8,0.6-1.2,0.8c0.3,0,0.6,0.2,1,0.7c0.6,0.7,0.8,1.6,0.5,2.8c-0.3,1.3-0.9,2.3-2,3.3
		c-1.1,0.9-2.5,1.4-4.1,1.4c-2.1,0-3.4-0.7-3.9-2c-0.3-0.7-0.3-1.7-0.1-2.9H111.7z"/>
	<path id="XMLID_1252_" class="st0" d="M128.6,84.5c0.1-0.2,0-0.5-0.1-0.8c-0.2-0.5-0.6-0.7-1.3-0.7c-0.9,0-1.7,0.5-2.4,1.6
		c-0.3,0.6-0.7,1.4-1,2.6c0.5-0.4,0.9-0.7,1.5-0.9c0.5-0.2,1.1-0.3,1.7-0.3c1.3,0,2.3,0.4,2.9,1.3c0.6,0.9,0.8,2,0.5,3.4
		c-0.3,1.4-1,2.6-2,3.6c-1,1.1-2.4,1.6-4.2,1.6c-1.9,0-3.1-0.8-3.6-2.3c-0.4-1.2-0.4-2.8,0-4.7c0.2-1.1,0.5-2,0.7-2.8
		c0.4-1.3,1-2.3,1.7-3.1c0.6-0.7,1.3-1.3,2-1.7c0.8-0.4,1.6-0.7,2.6-0.7c1.4,0,2.4,0.4,3.1,1.1c0.7,0.7,0.9,1.6,0.8,2.8H128.6z
		 M123.3,92.8c0.3,0.5,0.8,0.8,1.5,0.8c0.6,0,1.2-0.2,1.7-0.7c0.5-0.5,0.8-1.1,1-1.9c0.2-0.9,0.1-1.5-0.2-2
		c-0.3-0.5-0.8-0.7-1.4-0.7c-0.5,0-1,0.1-1.4,0.4c-0.7,0.4-1.1,1.2-1.3,2.1C122.9,91.7,123,92.3,123.3,92.8z"/>
	<path id="XMLID_1258_" class="st0" d="M142.2,82.7c0.5,1.3,0.4,3.2-0.1,5.6c-0.5,2.4-1.3,4.3-2.4,5.6c-1,1.3-2.5,2-4.4,2
		c-1.9,0-3.1-0.7-3.5-2c-0.5-1.3-0.4-3.2,0.1-5.6c0.5-2.4,1.3-4.3,2.4-5.6c1-1.3,2.5-2,4.4-2C140.6,80.7,141.8,81.4,142.2,82.7z
		 M134.5,92.2c0.1,0.9,0.6,1.4,1.4,1.4s1.5-0.5,2-1.4c0.5-0.9,0.9-2.2,1.2-3.9c0.4-1.8,0.5-3.1,0.4-4c-0.1-0.9-0.6-1.3-1.4-1.3
		s-1.5,0.4-2,1.3c-0.5,0.9-0.9,2.2-1.3,4C134.6,90,134.4,91.3,134.5,92.2z"/>
	<path id="XMLID_1264_" class="st0" d="M148.4,80.7c0.9,0,1.6,0.3,2.1,1c0.5,0.6,0.7,1.4,0.5,2.3c-0.2,0.9-0.7,1.7-1.5,2.3
		c-0.8,0.6-1.6,1-2.5,1s-1.6-0.3-2.1-1c-0.5-0.6-0.7-1.4-0.5-2.3c0.2-0.9,0.7-1.7,1.5-2.3C146.6,81,147.5,80.7,148.4,80.7z M146,84
		c-0.1,0.5,0,0.8,0.2,1.2c0.3,0.3,0.6,0.5,1.1,0.5c0.5,0,0.9-0.2,1.3-0.5c0.4-0.3,0.6-0.7,0.7-1.2c0.1-0.5,0-0.8-0.2-1.2
		c-0.3-0.3-0.6-0.5-1.1-0.5c-0.5,0-0.9,0.2-1.3,0.5C146.4,83.1,146.1,83.5,146,84z"/>
	<path id="XMLID_1270_" class="st0" d="M167.9,80.5h3.3l-8.4,15h-3l-1.8-15h3.4l0.8,11.4L167.9,80.5z"/>
	<path id="XMLID_1274_" class="st0" d="M182.1,80.9c0.5,0.2,0.9,0.6,1.2,1c0.2,0.4,0.4,0.8,0.5,1.3c0.1,0.5,0.1,1-0.1,1.6
		c-0.2,0.7-0.5,1.4-1,2.1c-0.5,0.7-1.2,1.2-2.1,1.5c0.6,0.3,1,0.7,1.2,1.2c0.2,0.5,0.2,1.3-0.1,2.3l-0.2,1c-0.1,0.7-0.2,1.2-0.2,1.4
		c0,0.4,0.1,0.7,0.4,0.9l-0.1,0.4h-3.5c0-0.3,0-0.6,0-0.8c0-0.4,0.1-0.9,0.1-1.3l0.3-1.4c0.2-1,0.2-1.6-0.1-1.9
		c-0.2-0.3-0.8-0.5-1.7-0.5h-3.1l-1.3,5.9h-3.1l3.2-15h7.2C180.9,80.6,181.6,80.7,182.1,80.9z M175.1,83.2l-0.9,4h3.4
		c0.7,0,1.2-0.1,1.6-0.2c0.7-0.3,1.1-0.8,1.3-1.7c0.2-0.9,0-1.5-0.5-1.8c-0.3-0.2-0.7-0.3-1.4-0.3H175.1z"/>
	<path id="XMLID_1280_" class="st0" d="M192.6,80.5h3.1l-2.7,12.3h7.5l-0.6,2.7h-10.6L192.6,80.5z"/>
	<path id="XMLID_1284_" class="st0" d="M203.9,84.5h2.9l-2.4,11.1h-2.9L203.9,84.5z M207.1,83.1h-2.9l0.6-2.7h2.9L207.1,83.1z"/>
	<path id="XMLID_1290_" class="st0" d="M216.1,84.5h3.1l-6.4,11.1h-3.1l-1.6-11.1h3.3l0.5,8.2L216.1,84.5z"/>
	<path id="XMLID_1294_" class="st0" d="M227.6,84.7c0.7,0.3,1.2,0.9,1.6,1.6c0.3,0.7,0.4,1.4,0.4,2.3c0,0.5-0.2,1.2-0.4,2.2h-8.1
		c-0.2,1.1,0,1.9,0.7,2.3c0.4,0.3,0.9,0.4,1.5,0.4c0.7,0,1.2-0.2,1.7-0.5c0.3-0.2,0.5-0.4,0.8-0.8h3c-0.2,0.7-0.7,1.3-1.5,2
		c-1.2,1.1-2.7,1.6-4.5,1.6c-1.5,0-2.7-0.5-3.6-1.4c-0.9-0.9-1.2-2.4-0.7-4.4c0.4-1.9,1.2-3.4,2.5-4.4c1.2-1,2.7-1.5,4.3-1.5
		C226.1,84.2,226.9,84.3,227.6,84.7z M222.7,87.2c-0.5,0.4-0.9,1-1.1,1.7h5c0.1-0.8,0-1.4-0.4-1.8c-0.4-0.4-0.9-0.6-1.6-0.6
		C223.9,86.6,223.2,86.8,222.7,87.2z"/>
</g>
<g>
	<g id="XMLID_39_">
		<g id="XMLID_40_">
			<path id="path32_2_" class="st1" d="M209.5,34.7c0,2.2-1.8,4.1-4.1,4.1c-2.2,0-4.1-1.8-4.1-4.1c0-2.2,1.8-4.1,4.1-4.1
				C207.7,30.6,209.5,32.4,209.5,34.7"/>
			<path id="path34_2_" class="st2" d="M179.4,12h1.9v5.7h-1.9V12z M179.4,33.5h1.9v5.7h-1.9V33.5z M180.3,28.1
				c1.4,0,2.6-1.1,2.6-2.5c0-1.4-1.1-2.6-2.6-2.6c-1.4,0-2.5,1.1-2.5,2.6C177.8,27,178.9,28.1,180.3,28.1z M166.4,20.3
				c0.9-0.9,2.2-1.3,3.4-1.3c3.4,0,4.3,2,4.6,3.7c1.1-2.2,3.3-3.7,6-3.7c1.9,0,3.5,0.8,4.7,2l-0.5-1.6h4.6l1.7,6.2l1.6-6.2h4.1
				l1.6,6.2l1.7-6.2h4.6l-3.9,12.6h-4.5l-1.6-6.2l-1.6,6.2h-4.5l-1.6-5.1c-0.5,3.1-3.3,5.5-6.5,5.5c-2.6,0-4.8-1.5-5.9-3.6v3.3h-4.6
				v-6.1c0-1.3,0.3-2.9-1.6-2.9c-1.2,0-1.7,1-1.7,2.2v6.8h-4.6V19.3h4.5V20.3"/>
			<path id="path36_2_" d="M201.2,34.6c0,2.4,1.9,4.3,4.3,4.3c2.4,0,4.3-1.9,4.3-4.3c0-2.4-1.9-4.3-4.3-4.3
				C203.1,30.3,201.2,32.3,201.2,34.6z M203.2,36.7v-2.8h-1.1v-1h4.2l0.6,2.3l0.6-2.3h1.2l-1.2,3.7h-1.3l-0.8-2.8h-1.1v2.8H203.2"/>
		</g>
	</g>
	<g id="XMLID_1132_">
		<path id="XMLID_1134_" d="M63.6,22.4c0.7-0.6,1.6-0.9,2.5-0.9c1.2,0,2,0.4,2.4,1.2c0.2,0.5,0.3,0.9,0.2,1.4h-1.5
			c0-0.4-0.1-0.6-0.2-0.8c-0.2-0.3-0.6-0.5-1.1-0.5c-0.6,0-1,0.2-1.5,0.7c-0.4,0.5-0.7,1.1-0.9,1.9c-0.2,0.8-0.1,1.5,0.1,1.9
			c0.2,0.4,0.6,0.6,1.1,0.6c0.5,0,1-0.2,1.3-0.5c0.2-0.2,0.4-0.5,0.6-0.9h1.5c-0.3,0.8-0.8,1.5-1.4,2c-0.7,0.5-1.4,0.8-2.3,0.8
			c-1.1,0-1.8-0.3-2.3-1c-0.5-0.7-0.6-1.6-0.3-2.8C62.2,24.1,62.7,23.1,63.6,22.4z"/>
		<path id="XMLID_1138_" d="M73.9,23.6c0.3,0.1,0.4,0.3,0.6,0.5c0.1,0.2,0.2,0.4,0.1,0.6c0,0.2-0.1,0.6-0.2,1.1L73.7,29h-1.5
			l0.7-3.3c0.1-0.3,0.1-0.5,0-0.7c-0.1-0.3-0.3-0.4-0.7-0.4c-0.4,0-0.7,0.1-0.9,0.4c-0.2,0.3-0.4,0.6-0.5,1.1l-0.6,3h-1.4l1.6-7.4
			h1.4l-0.6,2.6c0.3-0.3,0.6-0.5,0.9-0.7c0.3-0.1,0.6-0.2,0.9-0.2C73.3,23.4,73.6,23.5,73.9,23.6z"/>
		<path id="XMLID_1142_" d="M79.8,23.7c0.3,0.2,0.6,0.4,0.8,0.8c0.2,0.3,0.2,0.7,0.2,1.1c0,0.3-0.1,0.6-0.2,1.1h-4
			c-0.1,0.5,0,0.9,0.3,1.2c0.2,0.1,0.4,0.2,0.7,0.2c0.3,0,0.6-0.1,0.8-0.3c0.1-0.1,0.3-0.2,0.4-0.4h1.5c-0.1,0.3-0.4,0.7-0.7,1
			c-0.6,0.5-1.4,0.8-2.2,0.8c-0.7,0-1.3-0.2-1.8-0.7c-0.5-0.4-0.6-1.2-0.4-2.2c0.2-0.9,0.6-1.7,1.2-2.2c0.6-0.5,1.3-0.8,2.1-0.8
			C79,23.4,79.4,23.5,79.8,23.7z M77.4,24.9c-0.2,0.2-0.4,0.5-0.6,0.8h2.5c0.1-0.4,0-0.7-0.2-0.9c-0.2-0.2-0.4-0.3-0.8-0.3
			C77.9,24.6,77.6,24.7,77.4,24.9z"/>
		<path id="XMLID_1148_" d="M85.5,23.7c0.3,0.2,0.6,0.4,0.8,0.8c0.2,0.3,0.2,0.7,0.2,1.1c0,0.3-0.1,0.6-0.2,1.1h-4
			c-0.1,0.5,0,0.9,0.3,1.2c0.2,0.1,0.4,0.2,0.7,0.2c0.3,0,0.6-0.1,0.8-0.3c0.1-0.1,0.3-0.2,0.4-0.4h1.5c-0.1,0.3-0.4,0.7-0.7,1
			c-0.6,0.5-1.4,0.8-2.2,0.8c-0.7,0-1.3-0.2-1.8-0.7c-0.5-0.4-0.6-1.2-0.4-2.2c0.2-0.9,0.6-1.7,1.2-2.2c0.6-0.5,1.3-0.8,2.1-0.8
			C84.8,23.4,85.2,23.5,85.5,23.7z M83.1,24.9c-0.2,0.2-0.4,0.5-0.6,0.8H85c0.1-0.4,0-0.7-0.2-0.9c-0.2-0.2-0.4-0.3-0.8-0.3
			C83.7,24.6,83.3,24.7,83.1,24.9z"/>
		<path id="XMLID_1154_" d="M90.8,23.4c0,0,0.1,0,0.1,0l-0.3,1.5c-0.1,0-0.2,0-0.2,0c-0.1,0-0.1,0-0.2,0c-0.6,0-1,0.2-1.3,0.6
			c-0.2,0.2-0.3,0.5-0.4,1L87.9,29h-1.4l1.2-5.5H89l-0.2,1c0.3-0.4,0.5-0.6,0.7-0.7C89.9,23.5,90.3,23.4,90.8,23.4
			C90.7,23.4,90.7,23.4,90.8,23.4z"/>
		<path id="XMLID_1158_" d="M93.8,24.6l0.2-1h0.8l0.3-1.5h1.4l-0.3,1.5h0.9l-0.2,1h-0.9l-0.6,2.9c0,0.2-0.1,0.4,0,0.4
			c0,0.1,0.2,0.1,0.5,0.1c0,0,0.1,0,0.1,0c0,0,0.1,0,0.1,0l-0.2,1.1l-0.7,0c-0.7,0-1.1-0.1-1.3-0.4c-0.1-0.2-0.2-0.4-0.1-0.8
			l0.7-3.4H93.8z"/>
		<path id="XMLID_1162_" d="M101.5,28.4c-0.6,0.6-1.3,0.9-2.3,0.9c-0.9,0-1.6-0.3-1.9-0.9c-0.3-0.6-0.4-1.3-0.2-2.1
			c0.2-0.8,0.5-1.5,1.1-2.1c0.6-0.6,1.4-0.9,2.3-0.9c0.9,0,1.6,0.3,1.9,0.9c0.3,0.6,0.4,1.3,0.3,2.1
			C102.5,27.1,102.1,27.8,101.5,28.4z M100.5,27.6c0.3-0.3,0.5-0.7,0.6-1.3c0.1-0.5,0.1-1-0.1-1.3c-0.2-0.3-0.5-0.4-0.9-0.4
			s-0.8,0.1-1.1,0.4c-0.3,0.3-0.5,0.7-0.6,1.3c-0.1,0.5-0.1,1,0.1,1.3c0.2,0.3,0.5,0.4,0.9,0.4S100.3,27.9,100.5,27.6z"/>
		<path id="XMLID_1168_" d="M107,23.5c0.3,0.1,0.5,0.4,0.7,0.8l0.2-0.8h1.4l-1.1,5.2c-0.2,0.7-0.4,1.2-0.7,1.6
			c-0.5,0.6-1.4,0.9-2.6,0.9c-0.7,0-1.2-0.1-1.6-0.4c-0.4-0.3-0.5-0.7-0.5-1.2h1.6c0,0.2,0,0.3,0.1,0.4c0.1,0.1,0.4,0.2,0.7,0.2
			c0.5,0,0.9-0.2,1.1-0.5c0.2-0.2,0.3-0.6,0.4-1.1l0.1-0.4c-0.2,0.2-0.4,0.4-0.6,0.5c-0.3,0.2-0.7,0.3-1.2,0.3
			c-0.7,0-1.2-0.2-1.5-0.7c-0.3-0.5-0.4-1.2-0.2-2c0.2-0.8,0.5-1.5,1.1-2.1c0.5-0.6,1.2-0.8,1.9-0.8C106.6,23.4,106.8,23.5,107,23.5
			z M106.6,27.5c0.3-0.3,0.5-0.7,0.6-1.2c0.1-0.5,0.1-0.9-0.1-1.2c-0.2-0.3-0.4-0.4-0.8-0.4c-0.5,0-0.9,0.2-1.2,0.7
			c-0.2,0.3-0.3,0.6-0.4,0.9c-0.1,0.3-0.1,0.6,0,0.8c0.1,0.5,0.4,0.7,0.9,0.7C106,27.8,106.3,27.7,106.6,27.5z"/>
		<path id="XMLID_1174_" d="M114.1,23.7c0.3,0.2,0.6,0.4,0.8,0.8c0.2,0.3,0.2,0.7,0.2,1.1c0,0.3-0.1,0.6-0.2,1.1h-4
			c-0.1,0.5,0,0.9,0.3,1.2c0.2,0.1,0.4,0.2,0.7,0.2c0.3,0,0.6-0.1,0.8-0.3c0.1-0.1,0.3-0.2,0.4-0.4h1.5c-0.1,0.3-0.4,0.7-0.7,1
			c-0.6,0.5-1.4,0.8-2.2,0.8c-0.7,0-1.3-0.2-1.8-0.7c-0.5-0.4-0.6-1.2-0.4-2.2c0.2-0.9,0.6-1.7,1.2-2.2c0.6-0.5,1.3-0.8,2.1-0.8
			C113.4,23.4,113.8,23.5,114.1,23.7z M111.7,24.9c-0.2,0.2-0.4,0.5-0.6,0.8h2.5c0.1-0.4,0-0.7-0.2-0.9c-0.2-0.2-0.4-0.3-0.8-0.3
			C112.3,24.6,112,24.7,111.7,24.9z"/>
		<path id="XMLID_1180_" d="M115.5,24.6l0.2-1h0.8l0.3-1.5h1.4l-0.3,1.5h0.9l-0.2,1h-0.9l-0.6,2.9c0,0.2,0,0.4,0,0.4
			c0,0.1,0.2,0.1,0.5,0.1c0,0,0.1,0,0.1,0c0,0,0.1,0,0.1,0l-0.2,1.1l-0.7,0c-0.7,0-1.1-0.1-1.3-0.4c-0.1-0.2-0.2-0.4-0.1-0.8
			l0.7-3.4H115.5z"/>
		<path id="XMLID_1184_" d="M123.7,23.6c0.3,0.1,0.4,0.3,0.6,0.5c0.1,0.2,0.2,0.4,0.1,0.6c0,0.2-0.1,0.6-0.2,1.1l-0.7,3.2H122
			l0.7-3.3c0.1-0.3,0.1-0.5,0-0.7c-0.1-0.3-0.3-0.4-0.7-0.4c-0.4,0-0.7,0.1-0.9,0.4c-0.2,0.3-0.4,0.6-0.5,1.1l-0.6,3h-1.4l1.6-7.4
			h1.4l-0.6,2.6c0.3-0.3,0.6-0.5,0.9-0.7c0.3-0.1,0.6-0.2,0.9-0.2C123.1,23.4,123.4,23.5,123.7,23.6z"/>
		<path id="XMLID_1188_" d="M129.6,23.7c0.3,0.2,0.6,0.4,0.8,0.8c0.2,0.3,0.2,0.7,0.2,1.1c0,0.3-0.1,0.6-0.2,1.1h-4
			c-0.1,0.5,0,0.9,0.3,1.2c0.2,0.1,0.4,0.2,0.7,0.2c0.3,0,0.6-0.1,0.8-0.3c0.1-0.1,0.3-0.2,0.4-0.4h1.5c-0.1,0.3-0.4,0.7-0.7,1
			c-0.6,0.5-1.4,0.8-2.2,0.8c-0.7,0-1.3-0.2-1.8-0.7c-0.5-0.4-0.6-1.2-0.4-2.2c0.2-0.9,0.6-1.7,1.2-2.2c0.6-0.5,1.3-0.8,2.1-0.8
			C128.8,23.4,129.2,23.5,129.6,23.7z M127.2,24.9c-0.2,0.2-0.4,0.5-0.6,0.8h2.5c0.1-0.4,0-0.7-0.2-0.9c-0.2-0.2-0.4-0.3-0.8-0.3
			C127.7,24.6,127.4,24.7,127.2,24.9z"/>
		<path id="XMLID_1194_" d="M134.8,23.4c0,0,0.1,0,0.1,0l-0.3,1.5c-0.1,0-0.2,0-0.2,0c-0.1,0-0.1,0-0.2,0c-0.6,0-1,0.2-1.3,0.6
			c-0.2,0.2-0.3,0.5-0.4,1L132,29h-1.4l1.2-5.5h1.4l-0.2,1c0.3-0.4,0.5-0.6,0.7-0.7C133.9,23.5,134.3,23.4,134.8,23.4
			C134.8,23.4,134.8,23.4,134.8,23.4z"/>
		<path id="XMLID_1198_" d="M141.2,23.5h1.5l0,3.9l1.7-3.9h1.5l-2.8,5.5h-1.5v-4l-1.7,4h-1.5l-0.4-5.5h1.5l0,3.9L141.2,23.5z"/>
		<path id="XMLID_1202_" d="M146.6,23.5h1.5l-1.2,5.5h-1.5L146.6,23.5z M148.2,22.9h-1.5l0.3-1.3h1.5L148.2,22.9z"/>
		<path id="XMLID_1208_" d="M148.7,24.6l0.2-1h0.8l0.3-1.5h1.4l-0.3,1.5h0.9l-0.2,1h-0.9l-0.6,2.9c0,0.2,0,0.4,0,0.4
			c0,0.1,0.2,0.1,0.5,0.1c0,0,0.1,0,0.1,0c0,0,0.1,0,0.1,0l-0.2,1.1l-0.7,0c-0.7,0-1.1-0.1-1.3-0.4c-0.1-0.2-0.2-0.4-0.1-0.8
			l0.7-3.4H148.7z"/>
		<path id="XMLID_1212_" d="M156.8,23.6c0.3,0.1,0.4,0.3,0.6,0.5c0.1,0.2,0.2,0.4,0.1,0.6c0,0.2-0.1,0.6-0.2,1.1l-0.7,3.2h-1.5
			l0.7-3.3c0.1-0.3,0.1-0.5,0-0.7c-0.1-0.3-0.3-0.4-0.7-0.4c-0.4,0-0.7,0.1-0.9,0.4c-0.2,0.3-0.4,0.6-0.5,1.1l-0.6,3h-1.4l1.6-7.4
			h1.4l-0.6,2.6c0.3-0.3,0.6-0.5,0.9-0.7c0.3-0.1,0.6-0.2,0.9-0.2C156.3,23.4,156.6,23.5,156.8,23.6z"/>
	</g>
</g>
</svg>
