<?xml version="1.0" encoding="utf-8"?>
<!-- Generator: Adobe Illustrator 21.0.2, SVG Export Plug-In . SVG Version: 6.00 Build 0)  -->
<svg version="1.1" id="Layer_1" xmlns="http://www.w3.org/2000/svg" xmlns:xlink="http://www.w3.org/1999/xlink" x="0px" y="0px"
	 viewBox="0 0 290 115" style="enable-background:new 0 0 290 115;" xml:space="preserve">
<style type="text/css">
	.st0{fill:#E78844;}
	.st1{fill:#FFFFFF;}
	.st2{fill:#F49800;}
</style>
<g id="XMLID_1300_">
	<path id="XMLID_1302_" d="M41.7,59.9l3.1-14.2h2.9l-1.2,5.4H52l1.2-5.4h2.9L53,59.9h-2.9l1.4-6.3H46l-1.4,6.3H41.7z"/>
	<path id="XMLID_1306_" d="M64.4,58.6c-1.1,1.1-2.6,1.6-4.4,1.6c-1.8,0-3-0.5-3.7-1.6c-0.6-1.1-0.8-2.4-0.5-4
		c0.3-1.5,1.1-2.8,2.2-3.9c1.1-1.1,2.6-1.7,4.4-1.7c1.8,0,3,0.6,3.7,1.7c0.6,1.1,0.8,2.4,0.5,3.9C66.2,56.2,65.5,57.5,64.4,58.6z
		 M62.6,57.1c0.6-0.6,0.9-1.4,1.2-2.4c0.2-1.1,0.2-1.9-0.1-2.4c-0.3-0.6-0.9-0.9-1.7-0.9c-0.8,0-1.5,0.3-2,0.9
		c-0.6,0.6-0.9,1.4-1.2,2.4c-0.2,1.1-0.2,1.9,0.1,2.4c0.3,0.6,0.9,0.9,1.7,0.9C61.3,57.9,62,57.6,62.6,57.1z"/>
	<path id="XMLID_1312_" d="M77.8,50c0.6,0.6,0.7,1.5,0.4,2.8l-1.5,7.1h-2.8l1.4-6.4c0.1-0.6,0.1-1,0.1-1.3c-0.1-0.5-0.6-0.8-1.3-0.8
		c-0.9,0-1.6,0.4-2.1,1.2c-0.3,0.4-0.5,1-0.6,1.6L70,59.9h-2.7l2.3-10.5h2.6l-0.3,1.5c0.5-0.5,0.9-0.9,1.2-1.2
		c0.7-0.4,1.4-0.6,2.3-0.6C76.4,49.1,77.2,49.4,77.8,50z"/>
	<path id="XMLID_1316_" d="M86.4,49.4c0.6,0.3,1,0.8,1.3,1.5l0.3-1.5h2.7l-2.1,10c-0.3,1.4-0.7,2.4-1.3,3.1c-1,1.2-2.7,1.8-4.9,1.8
		c-1.3,0-2.4-0.3-3.1-0.8c-0.7-0.5-1-1.3-0.9-2.4h3c0,0.3,0.1,0.6,0.2,0.7c0.2,0.3,0.7,0.4,1.4,0.4c1,0,1.7-0.3,2.2-1
		c0.3-0.4,0.6-1.1,0.8-2.1l0.1-0.7c-0.4,0.5-0.7,0.8-1.1,1c-0.6,0.4-1.4,0.6-2.3,0.6c-1.3,0-2.3-0.5-2.9-1.4
		c-0.6-0.9-0.7-2.2-0.4-3.9c0.3-1.6,1-2.9,2-3.9c1-1.1,2.2-1.6,3.6-1.6C85.6,49.1,86.1,49.2,86.4,49.4z M85.7,56.9
		c0.5-0.5,0.9-1.3,1.2-2.3c0.2-1,0.2-1.8-0.1-2.3c-0.3-0.5-0.8-0.8-1.5-0.8c-1,0-1.7,0.5-2.3,1.4c-0.3,0.5-0.5,1.1-0.7,1.8
		c-0.1,0.6-0.1,1.2,0,1.6c0.2,0.9,0.7,1.3,1.7,1.3C84.6,57.6,85.2,57.4,85.7,56.9z"/>
	<path id="XMLID_1322_" d="M99.3,45.7h2.9l-1.3,5.9l6.7-5.9h3.8l-7,5.8l4.3,8.4H105l-3-6.2l-1.7,1.5l-1,4.8h-2.9L99.3,45.7z"/>
	<path id="XMLID_1326_" d="M119,58.6c-1.1,1.1-2.6,1.6-4.4,1.6c-1.8,0-3-0.5-3.7-1.6c-0.6-1.1-0.8-2.4-0.5-4
		c0.3-1.5,1.1-2.8,2.2-3.9c1.1-1.1,2.6-1.7,4.4-1.7c1.8,0,3,0.6,3.7,1.7c0.6,1.1,0.8,2.4,0.5,3.9C120.8,56.2,120.1,57.5,119,58.6z
		 M117.1,57.1c0.6-0.6,0.9-1.4,1.2-2.4c0.2-1.1,0.2-1.9-0.1-2.4c-0.3-0.6-0.9-0.9-1.7-0.9c-0.8,0-1.5,0.3-2,0.9
		c-0.6,0.6-0.9,1.4-1.2,2.4c-0.2,1.1-0.2,1.9,0.1,2.4c0.3,0.6,0.9,0.9,1.7,0.9C115.9,57.9,116.5,57.6,117.1,57.1z"/>
	<path id="XMLID_1332_" d="M132.3,50c0.6,0.6,0.7,1.5,0.4,2.8l-1.5,7.1h-2.8l1.4-6.4c0.1-0.6,0.1-1,0.1-1.3
		c-0.1-0.5-0.6-0.8-1.3-0.8c-0.9,0-1.6,0.4-2.1,1.2c-0.3,0.4-0.5,1-0.6,1.6l-1.2,5.7h-2.7l2.3-10.5h2.6l-0.3,1.5
		c0.5-0.5,0.9-0.9,1.2-1.2c0.7-0.4,1.4-0.6,2.3-0.6C130.9,49.1,131.7,49.4,132.3,50z"/>
	<path id="XMLID_1336_" d="M141,49.4c0.6,0.3,1,0.8,1.3,1.5l0.3-1.5h2.7l-2.1,10c-0.3,1.4-0.7,2.4-1.3,3.1c-1,1.2-2.7,1.8-4.9,1.8
		c-1.3,0-2.4-0.3-3.1-0.8c-0.7-0.5-1-1.3-0.9-2.4h3c0,0.3,0.1,0.6,0.2,0.7c0.2,0.3,0.7,0.4,1.4,0.4c1,0,1.7-0.3,2.2-1
		c0.3-0.4,0.6-1.1,0.8-2.1l0.1-0.7c-0.4,0.5-0.7,0.8-1.1,1c-0.6,0.4-1.4,0.6-2.3,0.6c-1.3,0-2.3-0.5-2.9-1.4
		c-0.6-0.9-0.7-2.2-0.4-3.9c0.3-1.6,1-2.9,2-3.9c1-1.1,2.2-1.6,3.6-1.6C140.2,49.1,140.6,49.2,141,49.4z M140.3,56.9
		c0.5-0.5,0.9-1.3,1.2-2.3c0.2-1,0.2-1.8-0.1-2.3c-0.3-0.5-0.8-0.8-1.5-0.8c-1,0-1.7,0.5-2.3,1.4c-0.3,0.5-0.5,1.1-0.7,1.8
		c-0.1,0.6-0.1,1.2,0,1.6c0.2,0.9,0.7,1.3,1.7,1.3C139.1,57.6,139.7,57.4,140.3,56.9z"/>
	<path id="XMLID_1342_" d="M153.9,55.5c0,0.6,0,1.1,0.2,1.5c0.4,0.6,1.1,0.9,2.3,0.9c0.7,0,1.3-0.1,1.8-0.2c0.9-0.3,1.4-0.8,1.6-1.6
		c0.1-0.5,0-0.8-0.4-1.1c-0.4-0.3-1-0.5-1.8-0.7l-1.5-0.3c-1.4-0.3-2.4-0.7-2.9-1.1c-0.8-0.7-1.1-1.7-0.8-3.1c0.3-1.3,1-2.3,2.1-3.2
		c1.1-0.8,2.6-1.3,4.4-1.3c1.5,0,2.7,0.4,3.6,1.2c0.9,0.8,1.2,1.9,0.9,3.5h-2.8c0.1-0.9-0.1-1.5-0.7-1.8c-0.4-0.2-1-0.4-1.7-0.4
		c-0.8,0-1.4,0.2-2,0.5c-0.5,0.3-0.9,0.7-1,1.3c-0.1,0.5,0,0.9,0.4,1.1c0.3,0.2,0.8,0.4,1.7,0.6l2.3,0.6c1,0.3,1.8,0.6,2.2,1
		c0.7,0.7,0.9,1.6,0.6,2.9c-0.3,1.3-1,2.4-2.2,3.2c-1.2,0.9-2.7,1.3-4.5,1.3c-1.9,0-3.2-0.4-4.1-1.3c-0.9-0.8-1.2-2-0.8-3.5H153.9z"
		/>
	<path id="XMLID_1346_" d="M172.5,49.6c0.7,0.3,1.1,0.8,1.5,1.6c0.3,0.6,0.4,1.3,0.4,2.2c0,0.5-0.2,1.2-0.4,2.1h-7.6
		c-0.2,1.1,0,1.8,0.6,2.2c0.4,0.3,0.8,0.4,1.4,0.4c0.6,0,1.2-0.2,1.6-0.5c0.2-0.2,0.5-0.4,0.7-0.7h2.8c-0.2,0.6-0.7,1.3-1.4,1.9
		c-1.2,1-2.6,1.5-4.3,1.5c-1.4,0-2.5-0.4-3.4-1.3c-0.9-0.9-1.1-2.3-0.7-4.2c0.4-1.8,1.2-3.2,2.3-4.2c1.2-1,2.5-1.5,4-1.5
		C171,49.1,171.8,49.3,172.5,49.6z M167.9,52c-0.5,0.4-0.8,0.9-1.1,1.6h4.7c0.1-0.7,0-1.3-0.4-1.7c-0.4-0.4-0.9-0.6-1.5-0.6
		C168.9,51.4,168.3,51.6,167.9,52z"/>
	<path id="XMLID_1352_" d="M182.8,49.4h2.9l-6,10.5h-2.9l-1.5-10.5h3.1l0.5,7.8L182.8,49.4z"/>
	<path id="XMLID_1356_" d="M193.9,49.6c0.7,0.3,1.1,0.8,1.5,1.6c0.3,0.6,0.4,1.3,0.4,2.2c0,0.5-0.2,1.2-0.4,2.1h-7.6
		c-0.2,1.1,0,1.8,0.6,2.2c0.4,0.3,0.8,0.4,1.4,0.4c0.6,0,1.2-0.2,1.6-0.5c0.2-0.2,0.5-0.4,0.7-0.7h2.8c-0.2,0.6-0.7,1.3-1.4,1.9
		c-1.2,1-2.6,1.5-4.3,1.5c-1.4,0-2.5-0.4-3.4-1.3c-0.9-0.9-1.1-2.3-0.7-4.2c0.4-1.8,1.2-3.2,2.3-4.2c1.2-1,2.5-1.5,4-1.5
		C192.4,49.1,193.2,49.3,193.9,49.6z M189.3,52c-0.5,0.4-0.8,0.9-1.1,1.6h4.7c0.1-0.7,0-1.3-0.4-1.7c-0.4-0.4-0.9-0.6-1.5-0.6
		C190.3,51.4,189.8,51.6,189.3,52z"/>
	<path id="XMLID_1362_" d="M206.1,50c0.6,0.6,0.7,1.5,0.4,2.8l-1.5,7.1h-2.8l1.4-6.4c0.1-0.6,0.1-1,0.1-1.3
		c-0.1-0.5-0.6-0.8-1.3-0.8c-0.9,0-1.6,0.4-2.1,1.2c-0.3,0.4-0.5,1-0.6,1.6l-1.2,5.7h-2.7l2.3-10.5h2.6l-0.3,1.5
		c0.5-0.5,0.9-0.9,1.2-1.2c0.7-0.4,1.4-0.6,2.3-0.6C204.7,49.1,205.6,49.4,206.1,50z"/>
	<path id="XMLID_1366_" d="M210.2,56.5c0,0.5,0,0.8,0.2,1c0.3,0.4,0.8,0.5,1.8,0.5c0.5,0,1-0.1,1.3-0.2c0.4-0.2,0.6-0.4,0.6-0.7
		c0.1-0.3,0-0.5-0.2-0.7c-0.2-0.2-1.1-0.4-2.7-0.8c-1.1-0.3-1.9-0.7-2.3-1.1c-0.4-0.4-0.5-1.1-0.3-1.9c0.2-1,0.8-1.8,1.7-2.5
		c0.9-0.7,2-1,3.4-1c1.3,0,2.3,0.3,3,0.8c0.7,0.5,1,1.4,0.8,2.7h-2.7c0-0.4,0-0.6-0.1-0.8c-0.2-0.4-0.7-0.6-1.4-0.6
		c-0.6,0-1,0.1-1.3,0.3c-0.3,0.2-0.5,0.4-0.5,0.7c-0.1,0.3,0,0.5,0.3,0.7c0.2,0.1,1.1,0.4,2.7,0.8c1,0.3,1.8,0.6,2.2,1.2
		c0.4,0.5,0.5,1.2,0.4,2c-0.2,1-0.8,1.9-1.7,2.6c-0.9,0.7-2.2,1-3.8,1c-1.6,0-2.8-0.3-3.4-1c-0.6-0.7-0.8-1.6-0.6-2.7H210.2z"/>
	<path id="XMLID_1370_" d="M217.4,62.2c0.6-0.2,1-0.4,1.4-0.8c0.3-0.4,0.6-0.9,0.8-1.5h-1.7l0.6-2.9h2.9l-0.5,2.5
		c-0.1,0.4-0.3,0.9-0.5,1.4c-0.2,0.5-0.5,0.9-0.9,1.2c-0.4,0.4-0.9,0.7-1.4,0.8c-0.5,0.2-0.8,0.3-1,0.3L217.4,62.2z"/>
	<path id="XMLID_1374_" d="M229.1,57.1c0.6-0.9,1.7-1.9,3.4-3c1.5-0.9,2.4-1.6,2.9-1.9c0.7-0.6,1.1-1.3,1.3-2
		c0.1-0.6,0.1-1.1-0.2-1.5c-0.2-0.4-0.7-0.6-1.3-0.6c-0.8,0-1.5,0.3-1.9,0.9c-0.2,0.4-0.5,0.9-0.7,1.7H230c0.3-1.2,0.7-2.2,1.3-2.9
		c1-1.4,2.5-2.1,4.3-2.1c1.5,0,2.6,0.4,3.2,1.2c0.7,0.8,0.9,1.9,0.6,3.3c-0.2,1-0.7,2-1.5,2.8c-0.5,0.5-1.3,1.1-2.4,1.8l-1.3,0.8
		c-0.8,0.5-1.3,0.8-1.6,1.1c-0.3,0.2-0.6,0.5-0.8,0.8h6.1l-0.5,2.4h-9.5C228.1,58.9,228.5,58,229.1,57.1z"/>
	<path id="XMLID_1378_" d="M249.7,47.7c0.4,1.3,0.4,3-0.1,5.3c-0.5,2.3-1.2,4.1-2.2,5.3c-1,1.2-2.4,1.9-4.1,1.9
		c-1.8,0-2.9-0.6-3.3-1.9s-0.4-3,0.1-5.3c0.5-2.3,1.2-4.1,2.2-5.3c1-1.3,2.4-1.9,4.1-1.9C248.2,45.8,249.3,46.4,249.7,47.7z
		 M242.5,56.7c0.1,0.9,0.5,1.3,1.3,1.3c0.8,0,1.4-0.4,1.9-1.3c0.4-0.9,0.8-2.1,1.2-3.7c0.4-1.7,0.5-2.9,0.4-3.7
		c-0.1-0.8-0.5-1.2-1.3-1.2c-0.8,0-1.4,0.4-1.9,1.2c-0.4,0.8-0.8,2.1-1.2,3.7C242.5,54.6,242.4,55.9,242.5,56.7z"/>
	<path id="XMLID_1384_" d="M252.1,50.2l0.4-1.9c0.9,0,1.5-0.1,1.8-0.2c0.6-0.1,1.1-0.4,1.5-0.7c0.3-0.3,0.5-0.6,0.8-1
		c0.1-0.3,0.2-0.4,0.2-0.6h2.3l-3,14h-2.8l2.1-9.6H252.1z"/>
	<path id="XMLID_1388_" d="M272.2,48.2c-0.5,0.4-1.2,1.1-2.2,2.2c-1,1-1.8,2.1-2.5,3.2c-0.6,0.9-1.2,1.9-1.7,3.2
		c-0.6,1.3-1,2.3-1.1,3.1h-2.8c0.6-2.5,2-5.1,4.1-7.8c1.4-1.7,2.5-2.8,3.3-3.5h-6.9l0.6-2.5h9.8L272.2,48.2z"/>
</g>
<g id="XMLID_1216_">
	<path id="XMLID_1218_" class="st0" d="M95.6,89.2c-1.4,1.2-3.2,1.8-5.3,1.8c-2.1,0-3.7-0.6-4.5-1.8c-1.2-1.4-1.5-3.5-0.9-6.2
		c0.6-2.8,1.8-4.8,3.6-6.2c1.4-1.2,3.2-1.8,5.3-1.8c2.1,0,3.7,0.6,4.5,1.8c1.2,1.4,1.5,3.4,0.9,6.2C98.6,85.7,97.4,87.8,95.6,89.2z
		 M94.1,87C95,86,95.7,84.7,96,83c0.4-1.7,0.3-3-0.3-3.9c-0.5-0.9-1.4-1.4-2.7-1.4c-1.2,0-2.3,0.5-3.3,1.4c-0.9,0.9-1.6,2.2-2,3.9
		c-0.4,1.7-0.3,3,0.3,3.9c0.5,0.9,1.4,1.4,2.7,1.4C92.1,88.3,93.2,87.9,94.1,87z"/>
	<path id="XMLID_1224_" class="st0" d="M110.5,80.1c0.6,0.6,0.7,1.6,0.4,3l-1.6,7.5h-3l1.5-6.8c0.1-0.6,0.1-1,0.1-1.3
		c-0.2-0.6-0.6-0.9-1.4-0.9c-1,0-1.7,0.4-2.3,1.3c-0.3,0.4-0.5,1-0.6,1.7l-1.3,6h-2.9l2.4-11.1h2.8l-0.3,1.6c0.5-0.6,0.9-1,1.3-1.2
		c0.7-0.4,1.5-0.7,2.4-0.7C109,79.2,109.9,79.5,110.5,80.1z"/>
	<path id="XMLID_1228_" class="st0" d="M114.6,90.6h-2.9l3.2-15h2.9L114.6,90.6z"/>
	<path id="XMLID_1232_" class="st0" d="M119.4,79.5h2.9L120,90.6h-2.9L119.4,79.5z M122.7,78.1h-2.9l0.6-2.7h2.9L122.7,78.1z"/>
	<path id="XMLID_1238_" class="st0" d="M133.6,80.1c0.6,0.6,0.7,1.6,0.4,3l-1.6,7.5h-3l1.5-6.8c0.1-0.6,0.1-1,0.1-1.3
		c-0.2-0.6-0.6-0.9-1.4-0.9c-1,0-1.7,0.4-2.3,1.3c-0.3,0.4-0.5,1-0.6,1.7l-1.3,6h-2.9l2.4-11.1h2.8l-0.3,1.6c0.5-0.6,0.9-1,1.3-1.2
		c0.7-0.4,1.5-0.7,2.4-0.7C132.1,79.2,133,79.5,133.6,80.1z"/>
	<path id="XMLID_1242_" class="st0" d="M144.3,79.7c0.7,0.3,1.2,0.9,1.6,1.6c0.3,0.7,0.4,1.4,0.4,2.3c0,0.5-0.2,1.2-0.4,2.2h-8.1
		c-0.2,1.1,0,1.9,0.7,2.3c0.4,0.3,0.9,0.4,1.5,0.4c0.7,0,1.2-0.2,1.7-0.5c0.3-0.2,0.5-0.4,0.8-0.8h3c-0.2,0.7-0.7,1.3-1.5,2
		c-1.2,1.1-2.7,1.6-4.5,1.6c-1.5,0-2.7-0.5-3.6-1.4c-0.9-0.9-1.2-2.4-0.7-4.4c0.4-1.9,1.2-3.4,2.5-4.4c1.2-1,2.7-1.5,4.3-1.5
		C142.8,79.2,143.6,79.3,144.3,79.7z M139.4,82.2c-0.5,0.4-0.9,1-1.1,1.7h5c0.1-0.8,0-1.4-0.4-1.8c-0.4-0.4-0.9-0.6-1.6-0.6
		C140.6,81.6,139.9,81.8,139.4,82.2z"/>
	<path id="XMLID_1248_" class="st0" d="M154.3,86c-0.1,0.6-0.1,1.1,0,1.5c0.2,0.7,0.8,1.1,1.7,1.1c0.6,0,1.1-0.2,1.6-0.6
		c0.5-0.4,0.8-1,1-1.7c0.2-1,0-1.6-0.8-1.9c-0.4-0.2-1.1-0.3-2.1-0.3l0.4-2.1c0.9,0,1.6-0.1,2-0.3c0.7-0.3,1.2-0.9,1.3-1.7
		c0.1-0.6,0.1-1-0.2-1.4c-0.3-0.4-0.7-0.5-1.3-0.5c-0.7,0-1.2,0.2-1.6,0.7c-0.4,0.4-0.7,1-0.8,1.7h-2.7c0.2-0.7,0.5-1.4,0.8-2.1
		c0.4-0.6,0.9-1.1,1.5-1.6c0.5-0.3,1-0.6,1.5-0.8c0.6-0.2,1.2-0.3,2-0.3c1.4,0,2.5,0.4,3.2,1.1c0.7,0.7,0.9,1.7,0.7,2.9
		c-0.2,0.9-0.6,1.6-1.2,2.2c-0.4,0.4-0.8,0.6-1.2,0.8c0.3,0,0.6,0.2,1,0.7c0.6,0.7,0.8,1.6,0.5,2.8c-0.3,1.3-0.9,2.3-2,3.3
		c-1.1,0.9-2.5,1.4-4.1,1.4c-2.1,0-3.4-0.7-3.9-2c-0.3-0.7-0.3-1.7-0.1-2.9H154.3z"/>
	<path id="XMLID_1252_" class="st0" d="M171.2,79.5c0.1-0.2,0-0.5-0.1-0.8c-0.2-0.5-0.6-0.7-1.3-0.7c-0.9,0-1.7,0.5-2.4,1.6
		c-0.3,0.6-0.7,1.4-1,2.6c0.5-0.4,0.9-0.7,1.5-0.9c0.5-0.2,1.1-0.3,1.7-0.3c1.3,0,2.3,0.4,2.9,1.3c0.6,0.9,0.8,2,0.5,3.4
		c-0.3,1.4-1,2.6-2,3.6c-1,1.1-2.4,1.6-4.2,1.6c-1.9,0-3.1-0.8-3.6-2.3c-0.4-1.2-0.4-2.8,0-4.7c0.2-1.1,0.5-2,0.7-2.8
		c0.4-1.3,1-2.3,1.7-3.1c0.6-0.7,1.3-1.3,2-1.7c0.8-0.4,1.6-0.7,2.6-0.7c1.4,0,2.4,0.4,3.1,1.1c0.7,0.7,0.9,1.6,0.8,2.8H171.2z
		 M165.9,87.8c0.3,0.5,0.8,0.8,1.5,0.8c0.6,0,1.2-0.2,1.7-0.7c0.5-0.5,0.8-1.1,1-1.9c0.2-0.9,0.1-1.5-0.2-2
		c-0.3-0.5-0.8-0.7-1.4-0.7c-0.5,0-1,0.1-1.4,0.4c-0.7,0.4-1.1,1.2-1.3,2.1C165.5,86.7,165.6,87.3,165.9,87.8z"/>
	<path id="XMLID_1258_" class="st0" d="M184.8,77.7c0.5,1.3,0.4,3.2-0.1,5.6c-0.5,2.4-1.3,4.3-2.4,5.6c-1,1.3-2.5,2-4.4,2
		c-1.9,0-3.1-0.7-3.5-2c-0.5-1.3-0.4-3.2,0.1-5.6c0.5-2.4,1.3-4.3,2.4-5.6c1-1.3,2.5-2,4.4-2C183.2,75.7,184.3,76.4,184.8,77.7z
		 M177.1,87.2c0.1,0.9,0.6,1.4,1.4,1.4c0.9,0,1.5-0.5,2-1.4c0.5-0.9,0.9-2.2,1.2-3.9c0.4-1.8,0.5-3.1,0.4-4
		c-0.1-0.9-0.6-1.3-1.4-1.3s-1.5,0.4-2,1.3c-0.5,0.9-0.9,2.2-1.3,4C177.1,85,177,86.3,177.1,87.2z"/>
	<path id="XMLID_1264_" class="st0" d="M191,75.7c0.9,0,1.6,0.3,2.1,1c0.5,0.6,0.7,1.4,0.5,2.3c-0.2,0.9-0.7,1.7-1.5,2.3
		c-0.8,0.6-1.6,1-2.5,1s-1.6-0.3-2.1-1c-0.5-0.6-0.7-1.4-0.5-2.3c0.2-0.9,0.7-1.7,1.5-2.3C189.2,76,190.1,75.7,191,75.7z M188.6,79
		c-0.1,0.5,0,0.8,0.2,1.2c0.3,0.3,0.6,0.5,1.1,0.5c0.5,0,0.9-0.2,1.3-0.5c0.4-0.3,0.6-0.7,0.7-1.2c0.1-0.5,0-0.8-0.2-1.2
		c-0.3-0.3-0.6-0.5-1.1-0.5c-0.5,0-0.9,0.2-1.3,0.5C189,78.1,188.7,78.5,188.6,79z"/>
	<path id="XMLID_1270_" class="st0" d="M210.5,75.5h3.3l-8.4,15h-3l-1.8-15h3.4l0.8,11.4L210.5,75.5z"/>
	<path id="XMLID_1274_" class="st0" d="M224.7,75.9c0.5,0.2,0.9,0.6,1.2,1c0.2,0.4,0.4,0.8,0.5,1.3c0.1,0.5,0.1,1-0.1,1.6
		c-0.2,0.7-0.5,1.4-1,2.1c-0.5,0.7-1.2,1.2-2.1,1.5c0.6,0.3,1,0.7,1.2,1.2c0.2,0.5,0.2,1.3-0.1,2.3l-0.2,1c-0.1,0.7-0.2,1.2-0.2,1.4
		c0,0.4,0.1,0.7,0.4,0.9l-0.1,0.4h-3.5c0-0.3,0-0.6,0-0.8c0-0.4,0.1-0.9,0.1-1.3l0.3-1.4c0.2-1,0.2-1.6-0.1-1.9
		c-0.2-0.3-0.8-0.5-1.7-0.5h-3.1l-1.3,5.9H212l3.2-15h7.2C223.4,75.6,224.2,75.7,224.7,75.9z M217.7,78.2l-0.9,4h3.4
		c0.7,0,1.2-0.1,1.6-0.2c0.7-0.3,1.1-0.8,1.3-1.7c0.2-0.9,0-1.5-0.5-1.8c-0.3-0.2-0.7-0.3-1.4-0.3H217.7z"/>
	<path id="XMLID_1280_" class="st0" d="M235.2,75.5h3.1l-2.7,12.3h7.5l-0.6,2.7H232L235.2,75.5z"/>
	<path id="XMLID_1284_" class="st0" d="M246.5,79.5h2.9l-2.4,11.1h-2.9L246.5,79.5z M249.7,78.1h-2.9l0.6-2.7h2.9L249.7,78.1z"/>
	<path id="XMLID_1290_" class="st0" d="M258.7,79.5h3.1l-6.4,11.1h-3.1l-1.6-11.1h3.3l0.5,8.2L258.7,79.5z"/>
	<path id="XMLID_1294_" class="st0" d="M270.2,79.7c0.7,0.3,1.2,0.9,1.6,1.6c0.3,0.7,0.4,1.4,0.4,2.3c0,0.5-0.2,1.2-0.4,2.2h-8.1
		c-0.2,1.1,0,1.9,0.7,2.3c0.4,0.3,0.9,0.4,1.5,0.4c0.7,0,1.2-0.2,1.7-0.5c0.3-0.2,0.5-0.4,0.8-0.8h3c-0.2,0.7-0.7,1.3-1.5,2
		c-1.2,1.1-2.7,1.6-4.5,1.6c-1.5,0-2.7-0.5-3.6-1.4c-0.9-0.9-1.2-2.4-0.7-4.4c0.4-1.9,1.2-3.4,2.5-4.4c1.2-1,2.7-1.5,4.3-1.5
		C268.7,79.2,269.5,79.3,270.2,79.7z M265.3,82.2c-0.5,0.4-0.9,1-1.1,1.7h5c0.1-0.8,0-1.4-0.4-1.8c-0.4-0.4-0.9-0.6-1.6-0.6
		C266.5,81.6,265.8,81.8,265.3,82.2z"/>
</g>
<g>
	<g id="XMLID_39_">
		<g id="XMLID_40_">
			<path id="path32_2_" class="st1" d="M274.6,29.7c0,2.2-1.8,4.1-4.1,4.1c-2.2,0-4.1-1.8-4.1-4.1c0-2.2,1.8-4.1,4.1-4.1
				C272.7,25.6,274.6,27.4,274.6,29.7"/>
			<path id="path34_2_" class="st2" d="M244.4,7h1.9v5.7h-1.9V7z M244.4,28.5h1.9v5.7h-1.9V28.5z M245.4,23.1c1.4,0,2.6-1.1,2.6-2.5
				c0-1.4-1.1-2.6-2.6-2.6c-1.4,0-2.5,1.1-2.5,2.6C242.8,22,243.9,23.1,245.4,23.1z M231.4,15.3c0.9-0.9,2.2-1.3,3.4-1.3
				c3.4,0,4.3,2,4.6,3.7c1.1-2.2,3.3-3.7,6-3.7c1.9,0,3.5,0.8,4.7,2l-0.5-1.6h4.6l1.7,6.2l1.6-6.2h4.1l1.6,6.2l1.7-6.2h4.6
				l-3.9,12.6h-4.5l-1.6-6.2l-1.6,6.2h-4.5l-1.6-5.1c-0.5,3.1-3.3,5.5-6.5,5.5c-2.6,0-4.8-1.5-5.9-3.6v3.3h-4.6v-6.1
				c0-1.3,0.3-2.9-1.6-2.9c-1.2,0-1.7,1-1.7,2.2v6.8h-4.6V14.3h4.5V15.3"/>
			<path id="path36_2_" d="M266.2,29.6c0,2.4,1.9,4.3,4.3,4.3c2.4,0,4.3-1.9,4.3-4.3c0-2.4-1.9-4.3-4.3-4.3
				C268.1,25.3,266.2,27.3,266.2,29.6z M268.3,31.7v-2.8h-1.1v-1h4.2l0.6,2.3l0.6-2.3h1.2l-1.2,3.7h-1.3l-0.8-2.8h-1.1v2.8H268.3"/>
		</g>
	</g>
	<g id="XMLID_1132_">
		<path id="XMLID_1134_" d="M128.6,17.4c0.7-0.6,1.6-0.9,2.5-0.9c1.2,0,2,0.4,2.4,1.2c0.2,0.5,0.3,0.9,0.2,1.4h-1.5
			c0-0.4-0.1-0.6-0.2-0.8c-0.2-0.3-0.6-0.5-1.1-0.5c-0.6,0-1,0.2-1.5,0.7c-0.4,0.5-0.7,1.1-0.9,1.9c-0.2,0.8-0.1,1.5,0.1,1.9
			c0.2,0.4,0.6,0.6,1.1,0.6c0.5,0,1-0.2,1.3-0.5c0.2-0.2,0.4-0.5,0.6-0.9h1.5c-0.3,0.8-0.8,1.5-1.4,2c-0.7,0.5-1.4,0.8-2.3,0.8
			c-1.1,0-1.8-0.3-2.3-1c-0.5-0.7-0.6-1.6-0.3-2.8C127.2,19.1,127.8,18.1,128.6,17.4z"/>
		<path id="XMLID_1138_" d="M138.9,18.6c0.3,0.1,0.4,0.3,0.6,0.5c0.1,0.2,0.2,0.4,0.1,0.6c0,0.2-0.1,0.6-0.2,1.1l-0.7,3.2h-1.5
			l0.7-3.3c0.1-0.3,0.1-0.5,0-0.7c-0.1-0.3-0.3-0.4-0.7-0.4c-0.4,0-0.7,0.1-0.9,0.4c-0.2,0.3-0.4,0.6-0.5,1.1l-0.6,3h-1.4l1.6-7.4
			h1.4l-0.6,2.6c0.3-0.3,0.6-0.5,0.9-0.7c0.3-0.1,0.6-0.2,0.9-0.2C138.4,18.4,138.7,18.5,138.9,18.6z"/>
		<path id="XMLID_1142_" d="M144.8,18.7c0.3,0.2,0.6,0.4,0.8,0.8c0.2,0.3,0.2,0.7,0.2,1.1c0,0.3-0.1,0.6-0.2,1.1h-4
			c-0.1,0.5,0,0.9,0.3,1.2c0.2,0.1,0.4,0.2,0.7,0.2c0.3,0,0.6-0.1,0.8-0.3c0.1-0.1,0.3-0.2,0.4-0.4h1.5c-0.1,0.3-0.4,0.7-0.7,1
			c-0.6,0.5-1.4,0.8-2.2,0.8c-0.7,0-1.3-0.2-1.8-0.7c-0.5-0.4-0.6-1.2-0.4-2.2c0.2-0.9,0.6-1.7,1.2-2.2c0.6-0.5,1.3-0.8,2.1-0.8
			C144.1,18.4,144.5,18.5,144.8,18.7z M142.4,19.9c-0.2,0.2-0.4,0.5-0.6,0.8h2.5c0.1-0.4,0-0.7-0.2-0.9c-0.2-0.2-0.4-0.3-0.8-0.3
			C143,19.6,142.7,19.7,142.4,19.9z"/>
		<path id="XMLID_1148_" d="M150.6,18.7c0.3,0.2,0.6,0.4,0.8,0.8c0.2,0.3,0.2,0.7,0.2,1.1c0,0.3-0.1,0.6-0.2,1.1h-4
			c-0.1,0.5,0,0.9,0.3,1.2c0.2,0.1,0.4,0.2,0.7,0.2c0.3,0,0.6-0.1,0.8-0.3c0.1-0.1,0.3-0.2,0.4-0.4h1.5c-0.1,0.3-0.4,0.7-0.7,1
			c-0.6,0.5-1.4,0.8-2.2,0.8c-0.7,0-1.3-0.2-1.8-0.7c-0.5-0.4-0.6-1.2-0.4-2.2c0.2-0.9,0.6-1.7,1.2-2.2c0.6-0.5,1.3-0.8,2.1-0.8
			C149.8,18.4,150.2,18.5,150.6,18.7z M148.1,19.9c-0.2,0.2-0.4,0.5-0.6,0.8h2.5c0.1-0.4,0-0.7-0.2-0.9c-0.2-0.2-0.4-0.3-0.8-0.3
			C148.7,19.6,148.4,19.7,148.1,19.9z"/>
		<path id="XMLID_1154_" d="M155.8,18.4c0,0,0.1,0,0.1,0l-0.3,1.5c-0.1,0-0.2,0-0.2,0c-0.1,0-0.1,0-0.2,0c-0.6,0-1,0.2-1.3,0.6
			c-0.2,0.2-0.3,0.5-0.4,1L153,24h-1.4l1.2-5.5h1.4l-0.2,1c0.3-0.4,0.5-0.6,0.7-0.7C154.9,18.5,155.3,18.4,155.8,18.4
			C155.8,18.4,155.8,18.4,155.8,18.4z"/>
		<path id="XMLID_1158_" d="M158.8,19.6l0.2-1h0.8l0.3-1.5h1.4l-0.3,1.5h0.9l-0.2,1H161l-0.6,2.9c0,0.2-0.1,0.4,0,0.4
			c0,0.1,0.2,0.1,0.5,0.1c0,0,0.1,0,0.1,0c0,0,0.1,0,0.1,0l-0.2,1.1l-0.7,0c-0.7,0-1.1-0.1-1.3-0.4c-0.1-0.2-0.2-0.4-0.1-0.8
			l0.7-3.4H158.8z"/>
		<path id="XMLID_1162_" d="M166.6,23.4c-0.6,0.6-1.3,0.9-2.3,0.9c-0.9,0-1.6-0.3-1.9-0.9c-0.3-0.6-0.4-1.3-0.2-2.1
			c0.2-0.8,0.5-1.5,1.1-2.1c0.6-0.6,1.4-0.9,2.3-0.9c0.9,0,1.6,0.3,1.9,0.9c0.3,0.6,0.4,1.3,0.3,2.1
			C167.5,22.1,167.2,22.8,166.6,23.4z M165.6,22.6c0.3-0.3,0.5-0.7,0.6-1.3c0.1-0.5,0.1-1-0.1-1.3c-0.2-0.3-0.5-0.4-0.9-0.4
			s-0.8,0.1-1.1,0.4c-0.3,0.3-0.5,0.7-0.6,1.3c-0.1,0.5-0.1,1,0.1,1.3s0.5,0.4,0.9,0.4S165.3,22.9,165.6,22.6z"/>
		<path id="XMLID_1168_" d="M172,18.5c0.3,0.1,0.5,0.4,0.7,0.8l0.2-0.8h1.4l-1.1,5.2c-0.2,0.7-0.4,1.2-0.7,1.6
			c-0.5,0.6-1.4,0.9-2.6,0.9c-0.7,0-1.2-0.1-1.6-0.4c-0.4-0.3-0.5-0.7-0.5-1.2h1.6c0,0.2,0,0.3,0.1,0.4c0.1,0.1,0.4,0.2,0.7,0.2
			c0.5,0,0.9-0.2,1.1-0.5c0.2-0.2,0.3-0.6,0.4-1.1l0.1-0.4c-0.2,0.2-0.4,0.4-0.6,0.5c-0.3,0.2-0.7,0.3-1.2,0.3
			c-0.7,0-1.2-0.2-1.5-0.7c-0.3-0.5-0.4-1.2-0.2-2c0.2-0.8,0.5-1.5,1.1-2.1c0.5-0.6,1.2-0.8,1.9-0.8C171.6,18.4,171.9,18.5,172,18.5
			z M171.7,22.5c0.3-0.3,0.5-0.7,0.6-1.2c0.1-0.5,0.1-0.9-0.1-1.2c-0.2-0.3-0.4-0.4-0.8-0.4c-0.5,0-0.9,0.2-1.2,0.7
			c-0.2,0.3-0.3,0.6-0.4,0.9c-0.1,0.3-0.1,0.6,0,0.8c0.1,0.5,0.4,0.7,0.9,0.7C171.1,22.8,171.4,22.7,171.7,22.5z"/>
		<path id="XMLID_1174_" d="M179.2,18.7c0.3,0.2,0.6,0.4,0.8,0.8c0.2,0.3,0.2,0.7,0.2,1.1c0,0.3-0.1,0.6-0.2,1.1h-4
			c-0.1,0.5,0,0.9,0.3,1.2c0.2,0.1,0.4,0.2,0.7,0.2c0.3,0,0.6-0.1,0.8-0.3c0.1-0.1,0.3-0.2,0.4-0.4h1.5c-0.1,0.3-0.4,0.7-0.7,1
			c-0.6,0.5-1.4,0.8-2.2,0.8c-0.7,0-1.3-0.2-1.8-0.7c-0.5-0.4-0.6-1.2-0.4-2.2c0.2-0.9,0.6-1.7,1.2-2.2c0.6-0.5,1.3-0.8,2.1-0.8
			C178.4,18.4,178.8,18.5,179.2,18.7z M176.8,19.9c-0.2,0.2-0.4,0.5-0.6,0.8h2.5c0.1-0.4,0-0.7-0.2-0.9c-0.2-0.2-0.4-0.3-0.8-0.3
			C177.3,19.6,177,19.7,176.8,19.9z"/>
		<path id="XMLID_1180_" d="M180.6,19.6l0.2-1h0.8l0.3-1.5h1.4l-0.3,1.5h0.9l-0.2,1h-0.9l-0.6,2.9c0,0.2,0,0.4,0,0.4
			c0,0.1,0.2,0.1,0.5,0.1c0,0,0.1,0,0.1,0c0,0,0.1,0,0.1,0l-0.2,1.1l-0.7,0c-0.7,0-1.1-0.1-1.3-0.4c-0.1-0.2-0.2-0.4-0.1-0.8
			l0.7-3.4H180.6z"/>
		<path id="XMLID_1184_" d="M188.7,18.6c0.3,0.1,0.4,0.3,0.6,0.5c0.1,0.2,0.2,0.4,0.1,0.6c0,0.2-0.1,0.6-0.2,1.1l-0.7,3.2h-1.5
			l0.7-3.3c0.1-0.3,0.1-0.5,0-0.7c-0.1-0.3-0.3-0.4-0.7-0.4c-0.4,0-0.7,0.1-0.9,0.4c-0.2,0.3-0.4,0.6-0.5,1.1l-0.6,3h-1.4l1.6-7.4
			h1.4l-0.6,2.6c0.3-0.3,0.6-0.5,0.9-0.7c0.3-0.1,0.6-0.2,0.9-0.2C188.2,18.4,188.5,18.5,188.7,18.6z"/>
		<path id="XMLID_1188_" d="M194.6,18.7c0.3,0.2,0.6,0.4,0.8,0.8c0.2,0.3,0.2,0.7,0.2,1.1c0,0.3-0.1,0.6-0.2,1.1h-4
			c-0.1,0.5,0,0.9,0.3,1.2c0.2,0.1,0.4,0.2,0.7,0.2c0.3,0,0.6-0.1,0.8-0.3c0.1-0.1,0.3-0.2,0.4-0.4h1.5c-0.1,0.3-0.4,0.7-0.7,1
			c-0.6,0.5-1.4,0.8-2.2,0.8c-0.7,0-1.3-0.2-1.8-0.7c-0.5-0.4-0.6-1.2-0.4-2.2c0.2-0.9,0.6-1.7,1.2-2.2c0.6-0.5,1.3-0.8,2.1-0.8
			C193.9,18.4,194.3,18.5,194.6,18.7z M192.2,19.9c-0.2,0.2-0.4,0.5-0.6,0.8h2.5c0.1-0.4,0-0.7-0.2-0.9c-0.2-0.2-0.4-0.3-0.8-0.3
			C192.8,19.6,192.4,19.7,192.2,19.9z"/>
		<path id="XMLID_1194_" d="M199.9,18.4c0,0,0.1,0,0.1,0l-0.3,1.5c-0.1,0-0.2,0-0.2,0c-0.1,0-0.1,0-0.2,0c-0.6,0-1,0.2-1.3,0.6
			c-0.2,0.2-0.3,0.5-0.4,1L197,24h-1.4l1.2-5.5h1.4l-0.2,1c0.3-0.4,0.5-0.6,0.7-0.7C199,18.5,199.4,18.4,199.9,18.4
			C199.8,18.4,199.8,18.4,199.9,18.4z"/>
		<path id="XMLID_1198_" d="M206.2,18.5h1.5l0,3.9l1.7-3.9h1.5l-2.8,5.5h-1.5v-4l-1.7,4h-1.5l-0.4-5.5h1.5l0,3.9L206.2,18.5z"/>
		<path id="XMLID_1202_" d="M211.7,18.5h1.5L212,24h-1.5L211.7,18.5z M213.3,17.9h-1.5l0.3-1.3h1.5L213.3,17.9z"/>
		<path id="XMLID_1208_" d="M213.7,19.6l0.2-1h0.8l0.3-1.5h1.4l-0.3,1.5h0.9l-0.2,1h-0.9l-0.6,2.9c0,0.2,0,0.4,0,0.4
			c0,0.1,0.2,0.1,0.5,0.1c0,0,0.1,0,0.1,0c0,0,0.1,0,0.1,0l-0.2,1.1l-0.7,0c-0.7,0-1.1-0.1-1.3-0.4c-0.1-0.2-0.2-0.4-0.1-0.8
			l0.7-3.4H213.7z"/>
		<path id="XMLID_1212_" d="M221.9,18.6c0.3,0.1,0.4,0.3,0.6,0.5c0.1,0.2,0.2,0.4,0.1,0.6c0,0.2-0.1,0.6-0.2,1.1l-0.7,3.2h-1.5
			l0.7-3.3c0.1-0.3,0.1-0.5,0-0.7c-0.1-0.3-0.3-0.4-0.7-0.4c-0.4,0-0.7,0.1-0.9,0.4c-0.2,0.3-0.4,0.6-0.5,1.1l-0.6,3h-1.4l1.6-7.4
			h1.4l-0.6,2.6c0.3-0.3,0.6-0.5,0.9-0.7c0.3-0.1,0.6-0.2,0.9-0.2C221.4,18.4,221.6,18.5,221.9,18.6z"/>
	</g>
</g>
</svg>
