<?xml version="1.0" encoding="utf-8"?>
<!-- Generator: Adobe Illustrator 21.0.2, SVG Export Plug-In . SVG Version: 6.00 Build 0)  -->
<svg version="1.1" id="Layer_1" xmlns="http://www.w3.org/2000/svg" xmlns:xlink="http://www.w3.org/1999/xlink" x="0px" y="0px"
	 viewBox="0 0 240 57" style="enable-background:new 0 0 240 57;" xml:space="preserve">
<style type="text/css">
	.st0{fill:#F89300;}
	.st1{fill:#FFFFFF;}
</style>
<rect class="st0" width="240" height="57"/>
<g>
	<path class="st1" d="M52.6,32.2l2.9-15.6h6l-5.3,24.9h-6.2l-3.3-14.2l-3.2,14.2h-6.2l-5.4-24.9h6l2.8,15.6L44,16.6h5.1L52.6,32.2z"
		/>
	<path class="st1" d="M72.4,41.4c-0.2-0.4-0.4-1-0.6-1.6c-1,1.3-2.6,2-4.5,2c-1.7,0-3.2-0.6-4.5-1.6c-1.2-1-1.8-2.4-1.8-4
		c0-2,0.8-3.5,2.2-4.6c1.5-1,3.6-1.5,6.5-1.5h1.8v-1c0-1.7-0.8-2.6-2.2-2.6c-1.3,0-2.1,0.7-2.1,2h-5.8c0-1.8,0.8-3.2,2.3-4.4
		s3.4-1.7,5.8-1.7s4.2,0.6,5.6,1.7c1.4,1.1,2.1,2.8,2.1,4.8v8.2c0,1.7,0.3,3,0.8,3.9v0.3L72.4,41.4L72.4,41.4z M68.8,37.7
		c0.8,0,1.3-0.2,1.8-0.5s0.9-0.7,1-1v-2.9h-1.7c-2,0-3,0.9-3,2.7c0,0.6,0.2,1,0.6,1.2C67.8,37.5,68.2,37.7,68.8,37.7z"/>
	<path class="st1" d="M86.4,18.3v4.6h3v4h-3v8.5c0,0.7,0.1,1.1,0.4,1.4c0.3,0.3,0.8,0.4,1.5,0.4c0.6,0,1,0,1.4-0.1v4.3
		c-1,0.3-2.1,0.5-3.2,0.5c-2.1,0-3.5-0.5-4.5-1.4c-1-1-1.4-2.4-1.4-4.3v-9.2h-2.4v-4h2.4v-4.6H86.4z"/>
	<path class="st1" d="M98.6,37.3c0.9,0,1.4-0.2,1.9-0.7c0.5-0.5,0.7-1,0.7-1.8h5.4c0,2-0.8,3.7-2.2,4.9c-1.4,1.2-3.3,1.9-5.6,1.9
		c-2.7,0-4.8-0.9-6.4-2.6s-2.3-4-2.3-7v-0.3c0-1.9,0.4-3.5,1-4.9c0.7-1.4,1.7-2.6,2.9-3.3c1.3-0.8,2.8-1.1,4.7-1.1
		c2.4,0,4.3,0.7,5.7,2c1.4,1.3,2.1,3.1,2.1,5.4h-5.4c0-1-0.2-1.7-0.7-2.2c-0.5-0.5-1.1-0.8-1.9-0.8c-1.5,0-2.4,0.9-2.7,2.8
		c-0.1,0.6-0.1,1.4-0.1,2.5c0,1.9,0.2,3.1,0.7,3.9C97,36.9,97.6,37.3,98.6,37.3z"/>
	<path class="st1" d="M113.7,25c1.2-1.5,2.8-2.3,4.8-2.3c2,0,3.6,0.6,4.7,1.8c1,1.2,1.5,2.9,1.6,5.3v11.7H119V29.9
		c0-0.9-0.2-1.7-0.6-2.2c-0.4-0.5-1.2-0.7-2.2-0.7c-1.1,0-2,0.4-2.5,1.1v13.2h-5.8V15.2h5.8V25z"/>
	<path class="st1" d="M155.8,41.4h-6L141,25.9v15.5h-6V16.6h6l8.8,15.5V16.6h6V41.4z"/>
	<path class="st1" d="M157.7,32c0-1.8,0.4-3.5,1-4.9c0.8-1.4,1.7-2.6,3.1-3.3c1.4-0.8,2.9-1.1,4.8-1.1c2.8,0,4.9,0.9,6.6,2.6
		s2.4,4.1,2.4,7v0.2c0,2.9-0.8,5.1-2.4,6.8s-3.8,2.6-6.5,2.6s-4.8-0.8-6.4-2.4c-1.6-1.6-2.5-3.7-2.6-6.5L157.7,32z M163.5,32.4
		c0,1.7,0.3,2.9,0.8,3.8c0.5,0.9,1.3,1.2,2.4,1.2c2.1,0,3.1-1.6,3.1-4.8v-0.6c0-3.3-1-4.9-3.1-4.9c-1.9,0-2.9,1.4-3.1,4.3V32.4z"/>
	<path class="st1" d="M193.2,33.8l1.9-10.9h5.5l-4.4,18.4h-4.8l-3-10.9l-3,10.9h-4.8l-4.4-18.4h5.5l1.8,11.1l2.9-11.1h4L193.2,33.8z
		"/>
	<path class="st1" d="M201.9,38.9c0-0.9,0.3-1.5,0.9-2.1c0.6-0.6,1.3-0.9,2.3-0.9c0.9,0,1.7,0.3,2.3,0.9c0.6,0.6,0.9,1.2,0.9,2.1
		c0,0.9-0.3,1.5-0.9,2.1c-0.6,0.6-1.3,0.9-2.3,0.9c-1,0-1.7-0.3-2.3-0.9C202.2,40.4,201.9,39.7,201.9,38.9z M207.4,33.5h-4.7
		l-0.7-16.9h6.2L207.4,33.5z"/>
</g>
</svg>
