<?xml version="1.0" encoding="utf-8"?>
<!-- Generator: Adobe Illustrator 21.0.2, SVG Export Plug-In . SVG Version: 6.00 Build 0)  -->
<svg version="1.1" id="Layer_1" xmlns="http://www.w3.org/2000/svg" xmlns:xlink="http://www.w3.org/1999/xlink" x="0px" y="0px"
	 viewBox="0 0 240 57" style="enable-background:new 0 0 240 57;" xml:space="preserve">
<style type="text/css">
	.st0{fill:#F89300;}
	.st1{fill:#FFFFFF;}
</style>
<rect class="st0" width="240" height="57"/>
<g>
	<path class="st1" d="M77.7,39.4v4.3H46v-4.3h17.1c1.7-4.3,3.6-10.6,4.6-15.6l4.8,0.9c-1.3,5-3.1,10.6-4.8,14.6H77.7z M76.3,22.7
		H47.6v-4.2h12.7c-0.4-1.6-1-3.9-1.7-5.6l4.2-1c0.8,1.7,1.5,4.1,1.9,5.6l-3.8,1h15.4V22.7z M54.8,38.6c-0.4-3.7-1.7-9.5-2.9-13.8
		l4.2-1c1.3,4.4,2.6,10,3.2,13.7L54.8,38.6z"/>
	<path class="st1" d="M93.5,32.1c1.7,2.8,3.9,6.6,4.8,9.1l-3.9,2.1c-0.3-0.9-0.7-1.9-1.2-3c-8.3,2.6-9.6,3.1-10.6,3.8
		c-0.3-1.2-1-3.2-1.6-4.3c0.8-0.4,1.6-1,1.6-2.5V14h14.7v17.3H86.8v6.9l4.7-1.3c-0.6-1-1.1-2-1.6-2.9L93.5,32.1z M86.8,17.7v2.9h6.3
		v-2.9H86.8z M93.2,27.5v-3.2h-6.3v3.2H93.2z M111.8,34.4c0,1.9-0.3,2.9-1.5,3.7c-1.1,0.7-2.8,0.7-4.9,0.7c-0.1-1.1-0.7-2.8-1.1-3.9
		c1.2,0.1,2.6,0.1,2.9,0c0.4,0,0.6-0.1,0.6-0.6V18.1h-4.3V45h-4.2V14.3h12.5V34.4z"/>
	<path class="st1" d="M145.3,41.3c0.2,0,0.4,0,0.6-0.1c0.1-0.1,0.2-0.4,0.3-0.7c0.1-0.5,0.1-1.6,0.1-3c0.6,0.5,1.5,1,2.3,1.2
		c0,1.5-0.2,3.2-0.4,3.9c-0.2,0.7-0.6,1-1,1.4c-0.4,0.3-1,0.5-1.7,0.5h-1.6c-0.8,0-1.5-0.2-2-0.8c-0.6-0.6-0.7-1-0.7-2.8v-8h-1.5
		c-0.4,4.9-1.4,9.5-5.4,12.2c-0.4-0.7-1.1-1.9-1.8-2.6v1h-11V45h-3.1V34.1c-0.5,0.6-0.9,1-1.3,1.6c-0.3-0.7-1.2-2.2-1.7-2.8
		c1.7-1.7,3.3-4.3,4.5-6.8h-2.9v-6.6h7.1V26H121l1.7,0.6c-0.3,0.6-0.5,1.1-0.8,1.7h3.1c-0.3-0.6-0.6-1-0.8-1.5l2.3-0.9h-1.1v-6.6
		h7.1v6.6H127c0.5,0.8,1,1.6,1.2,2.4h4.6v2.8h-4.6v1.3h3.9V35h-3.9v1.4h4.1V39h-4.1v1.6h4.4v1.1c3-2,3.9-5.4,4.3-8.9h-2.1V13.6h12
		V33h-2.5v7.8c0,0.2,0,0.4,0.1,0.5c0.1,0.1,0.3,0.2,0.5,0.2L145.3,41.3L145.3,41.3z M119.5,17.2h-3.7v-2.9h3.7v-2h3.4v2h3.7v-2h3.3
		v2h3.4v2.9H130v1.6h-3.3v-1.6h-3.7v1.6h-3.4V17.2z M119.1,23.9h2.3v-2.6h-2.3V23.9z M124.7,31.1h-3.3v1.3h3.3V31.1z M124.7,35.1
		h-3.3v1.4h3.3V35.1z M121.4,40.7h3.3V39h-3.3V40.7z M127.6,23.8h2.3v-2.4h-2.3V23.8z M137.7,19.2h5.6v-2.9h-5.6V19.2z M137.7,24.6
		h5.6v-2.9h-5.6V24.6z M137.7,30.1h5.6v-2.9h-5.6V30.1z"/>
	<path class="st1" d="M163.5,26.2c-0.3,0.5-0.6,0.9-0.8,1.4h16.3V45h-4.2v-1.2h-12.6V45h-4V33.5c-1.6,1.6-3.3,3-5.4,4.2
		c-0.6-1-1.8-2.6-2.7-3.3c3.6-2,6.5-4.8,8.6-8.2h-7.4v-3.3h9.2c0.3-0.5,0.5-1,0.7-1.5h-7.4v-3.1h8.6c0.1-0.5,0.3-0.9,0.4-1.5
		c-2.9,0.1-5.8,0.1-8.6,0.1c0-0.9-0.4-2.3-0.8-3.1c8.5,0,18.6-0.4,24.5-1.4l2.5,2.9c-3.7,0.7-8.3,1-13.1,1.2
		c-0.1,0.6-0.3,1.1-0.5,1.7h13.7v3.2h-14.9c-0.2,0.5-0.4,1-0.6,1.5h17.3v3.3H163.5z M174.8,30.8h-12.6v1.5h12.6V30.8z M174.8,34.9
		h-12.6v1.5h12.6V34.9z M174.8,40.7V39h-12.6v1.6H174.8z"/>
	<path class="st1" d="M187.5,39c0-1.9,1.3-3.3,3.2-3.3c1.8,0,3.2,1.4,3.2,3.3s-1.4,3.3-3.2,3.3S187.5,40.9,187.5,39z M188.3,20.1
		l-0.2-4.8h5.1l-0.2,4.8l-0.8,12.9H189L188.3,20.1z"/>
</g>
</svg>
