<?xml version="1.0" encoding="utf-8"?>
<!-- Generator: Adobe Illustrator 21.0.2, SVG Export Plug-In . SVG Version: 6.00 Build 0)  -->
<svg version="1.1" id="Layer_1" xmlns="http://www.w3.org/2000/svg" xmlns:xlink="http://www.w3.org/1999/xlink" x="0px" y="0px"
	 viewBox="0 0 32 74" style="enable-background:new 0 0 32 74;" xml:space="preserve">
<style type="text/css">
	.st0{fill:#FFFFFF;}
	.st1{fill:#E8873B;}
</style>
<path class="st0" d="M16,0C7.2,0,0,7.2,0,16s7.2,16,16,16s16-7.2,16-16S24.8,0,16,0z M10.7,20.5H3.9v-9h6.5v1.6H5.8V15h4.3v1.6H5.8
	v2.3h4.9C10.7,18.9,10.7,20.5,10.7,20.5z M19.1,20.5h-1.9l-3.6-6.3v6.3h-1.7v-8.8h2l3.5,6.2v-6.2h1.7V20.5z M26.8,20.5l-0.2-1.1
	c-0.4,0.5-0.7,0.7-1,0.9c-0.5,0.3-1.1,0.5-1.8,0.5c-1.2,0-2.2-0.5-2.9-1.3c-0.8-0.8-1.2-1.9-1.2-3.3c0-1.4,0.4-2.6,1.2-3.4
	c0.8-0.9,1.8-1.3,3.2-1.3c1.1,0,2.1,0.3,2.7,0.9c0.7,0.5,1.1,1.3,1.2,2.2h-1.8c-0.2-0.6-0.5-1-1-1.3c-0.3-0.1-0.6-0.2-1-0.2
	c-0.7,0-1.3,0.3-1.8,0.8c-0.5,0.5-0.7,1.4-0.7,2.4s0.3,1.9,0.7,2.3c0.5,0.5,1.1,0.7,1.7,0.7c0.6,0,1.2-0.2,1.5-0.5
	c0.4-0.4,0.6-0.8,0.7-1.4h-2V16h3.7v4.8h-1.3V20.5z"/>
<path class="st1" d="M16,42C7.2,42,0,49.2,0,58s7.2,16,16,16s16-7.2,16-16S24.8,42,16,42z M10.7,62.5H3.9v-9h6.5v1.6H5.8V57h4.3v1.6
	H5.8v2.3h4.9C10.7,60.9,10.7,62.5,10.7,62.5z M19.1,62.5h-1.9l-3.6-6.3v6.3h-1.7v-8.8h2l3.5,6.2v-6.2h1.7V62.5z M26.8,62.5l-0.2-1.1
	c-0.4,0.5-0.7,0.7-1,0.9c-0.5,0.3-1.1,0.5-1.8,0.5c-1.2,0-2.2-0.5-2.9-1.3c-0.8-0.8-1.2-1.9-1.2-3.3c0-1.4,0.4-2.6,1.2-3.4
	c0.8-0.9,1.8-1.3,3.2-1.3c1.1,0,2.1,0.3,2.7,0.9c0.7,0.5,1.1,1.3,1.2,2.2h-1.8c-0.2-0.6-0.5-1-1-1.3c-0.3-0.1-0.6-0.2-1-0.2
	c-0.7,0-1.3,0.3-1.8,0.8c-0.5,0.5-0.7,1.4-0.7,2.4s0.3,1.9,0.7,2.3c0.5,0.5,1.1,0.7,1.7,0.7c0.6,0,1.2-0.2,1.5-0.5
	c0.4-0.4,0.6-0.8,0.7-1.4h-2V58h3.7v4.8h-1.3V62.5z"/>
</svg>
