<?xml version="1.0" encoding="utf-8"?>
<!-- Generator: Adobe Illustrator 21.0.2, SVG Export Plug-In . SVG Version: 6.00 Build 0)  -->
<svg version="1.1" id="Layer_1" xmlns="http://www.w3.org/2000/svg" xmlns:xlink="http://www.w3.org/1999/xlink" x="0px" y="0px"
	 viewBox="0 0 32 74" style="enable-background:new 0 0 32 74;" xml:space="preserve">
<style type="text/css">
	.st0{fill:#3B5998;}
	.st1{fill:#FFFFFF;}
</style>
<path class="st0" d="M26,74H6c-3.3,0-6-2.7-6-6V48c0-3.3,2.7-6,6-6h20c3.3,0,6,2.7,6,6v20C32,71.3,29.3,74,26,74z"/>
<path class="st1" d="M22.1,74c0-4.1,0-8.1,0-12.2c0-0.1,0-0.1,0-0.2c0.1-0.1,0.2,0,0.4,0c1.1,0,2.3,0,3.4,0c0.1,0,0.2,0,0.4,0
	c0-0.1,0.1-0.3,0.1-0.4c0.2-1.4,0.4-2.9,0.5-4.3c-0.1-0.1-0.2-0.1-0.4-0.1c-0.8,0-1.6,0-2.4,0c-0.5,0-1.1,0-1.6,0
	c-0.1,0-0.2,0-0.3,0c0-0.1,0-0.1,0-0.2c0-1,0-2.1,0-3.1c0-0.3,0.1-0.7,0.2-1c0.2-0.4,0.5-0.7,0.9-0.9c0.4-0.1,0.9-0.2,1.3-0.2
	c0.7,0,1.4,0,2.1,0c0.1,0,0.2,0,0.3,0c0.1-0.1,0.1-0.2,0.1-0.3c0-0.4,0-0.9,0-1.3c0-0.8,0-1.6,0-2.4c0-0.1,0-0.2,0-0.3
	c-0.2-0.1-0.4-0.1-0.6-0.1c-0.6-0.1-1.3-0.1-1.9-0.1c-0.3,0-0.5,0-0.8,0c-0.6,0-1.1,0-1.7,0.1c-1.1,0.2-2.1,0.6-2.9,1.3
	c-0.5,0.5-1,1-1.3,1.6c-0.2,0.4-0.4,0.9-0.5,1.3c-0.2,0.7-0.2,1.4-0.2,2.1c0,1,0,2,0,3c0,0.1,0,0.2,0,0.3c-0.1,0.1-0.2,0.1-0.4,0.1
	c-0.7,0-1.4,0-2.1,0c-0.5,0-0.9,0-1.4,0c-0.1,0-0.2,0-0.3,0c-0.1,0.1-0.1,0.2-0.1,0.4c0,1.1,0,2.2,0,3.4c0,0.3,0,0.6,0,0.8
	c0,0.1,0,0.2,0,0.3c1.4,0,2.7,0,4.1,0c0.1,0.1,0.1,0.2,0.1,0.4c0,0.8,0,1.6,0,2.3c0,3.1,0,6.6,0,9.7L22.1,74z"/>
<path class="st1" d="M26,0H6C2.7,0,0,2.7,0,6v20c0,3.3,2.7,6,6,6h11.1c0-4.1,0-8.2,0-9.7c0-0.8,0-1.6,0-2.3c0-0.1,0-0.2-0.1-0.4
	c-1.3,0-2.7,0-4.1,0c0-0.1,0-0.2,0-0.3c0-0.3,0-0.6,0-0.8c0-1.1,0-2.2,0-3.4c0-0.1,0-0.2,0.1-0.4c0.1,0,0.2,0,0.3,0
	c0.5,0,0.9,0,1.4,0c0.7,0,1.4,0,2.1,0c0.1,0,0.2,0,0.4-0.1c0-0.1,0-0.2,0-0.3c0-1,0-2,0-3c0-0.7,0.1-1.4,0.2-2.1
	c0.1-0.5,0.3-0.9,0.5-1.3c0.3-0.6,0.8-1.2,1.3-1.6c0.9-0.7,1.8-1.1,2.9-1.3c0.6-0.1,1.1-0.1,1.7-0.1c0.3,0,0.5,0,0.8,0
	c0.6,0,1.3,0,1.9,0.1c0.2,0,0.4,0,0.6,0.1c0,0.1,0,0.2,0,0.3c0,0.8,0,1.6,0,2.4c0,0.4,0,0.9,0,1.3c0,0.1,0,0.2-0.1,0.3
	c-0.1,0-0.2,0-0.3,0c-0.7,0-1.4,0-2.1,0c-0.4,0-0.9,0-1.3,0.2c-0.5,0.1-0.8,0.4-0.9,0.9c-0.1,0.3-0.2,0.7-0.2,1c0,1,0,2.1,0,3.1
	c0,0.1,0,0.1,0,0.2c0.1,0,0.2,0,0.3,0c0.5,0,1.1,0,1.6,0c0.8,0,1.6,0,2.4,0c0.1,0,0.2,0,0.4,0.1c-0.2,1.4-0.4,2.9-0.5,4.3
	c0,0.1,0,0.3-0.1,0.4c-0.1,0.1-0.2,0-0.4,0c-1.1,0-2.3,0-3.4,0c-0.1,0-0.2,0-0.4,0c0,0.1,0,0.1,0,0.2c0,2.2,0,7.3,0,12.2H26
	c3.3,0,6-2.7,6-6V6C32,2.7,29.3,0,26,0z"/>
</svg>
