<?xml version="1.0" encoding="utf-8"?>
<!-- Generator: Adobe Illustrator 21.0.2, SVG Export Plug-In . SVG Version: 6.00 Build 0)  -->
<svg version="1.1" id="Layer_1" xmlns="http://www.w3.org/2000/svg" xmlns:xlink="http://www.w3.org/1999/xlink" x="0px" y="0px"
	 viewBox="0 0 64 56" style="enable-background:new 0 0 64 56;" xml:space="preserve">
<style type="text/css">
	.st0{fill:#FFFFFF;}
	.st1{fill:#E8873B;}
	.st2{fill:#181516;}
</style>
<g>
	<path id="path32_2_" class="st0" d="M62.3,39.9c0,2.9-2.4,5.3-5.3,5.3c-2.9,0-5.3-2.4-5.3-5.3c0-2.9,2.4-5.3,5.3-5.3
		C59.9,34.6,62.3,37,62.3,39.9"/>
	<path id="path34_2_" class="st1" d="M22.9,10.2h2.4v7.4h-2.4V10.2z M22.9,38.4h2.4v7.4h-2.4V38.4z M24.1,31.3
		c1.8,0,3.3-1.5,3.3-3.3s-1.5-3.3-3.3-3.3s-3.3,1.5-3.3,3.3C20.8,29.8,22.3,31.3,24.1,31.3z M5.9,21c1.2-1.1,2.9-1.8,4.4-1.8
		c4.5,0,5.7,2.7,6,4.9c1.4-2.9,4.4-4.9,7.8-4.9c2.4,0,4.6,1,6.2,2.6l-0.7-2.1h6l2.2,8.1l2.2-8.1h5.3l2.1,8.1l2.2-8.1h6.1l-5.1,16.5
		h-5.9l-2.1-8.1l-2.1,8.1h-5.9l-2.1-6.7c-0.7,4.1-4.3,7.2-8.6,7.2c-3.4,0-6.3-1.9-7.7-4.7v4.3h-6v-8c0-1.7,0.4-3.8-2.1-3.8
		c-1.5,0-2.3,1.2-2.3,2.8v8.9H0V19.7h5.9V21"/>
	<path id="path36_2_" class="st0" d="M51.4,39.8c0,3.1,2.5,5.6,5.6,5.6s5.6-2.5,5.6-5.6s-2.5-5.6-5.6-5.6S51.4,36.7,51.4,39.8z
		 M54.1,42.5v-3.6h-1.4v-1.3h5.5l0.8,3l0.8-3h1.5l-1.5,4.9h-1.7L57,38.9h-1.4v3.6H54.1"/>
	<path id="path36_1_" class="st2" d="M54.1,42.5v-3.6h-1.4v-1.3h5.5l0.8,3l0.8-3h1.5l-1.5,4.9h-1.7L57,38.9h-1.4v3.6H54.1"/>
</g>
</svg>
