<?xml version="1.0" encoding="utf-8"?>
<!-- Generator: Adobe Illustrator 21.0.2, SVG Export Plug-In . SVG Version: 6.00 Build 0)  -->
<svg version="1.1" id="Layer_1" xmlns="http://www.w3.org/2000/svg" xmlns:xlink="http://www.w3.org/1999/xlink" x="0px" y="0px"
	 viewBox="0 0 32 74" style="enable-background:new 0 0 32 74;" xml:space="preserve">
<style type="text/css">
	.st0{fill:#FFFFFF;}
	.st1{fill:url(#SVGID_1_);}
</style>
<g>
	<path class="st0" d="M6.3,16.4c-0.1,0.2-0.1,0.8,0,1.2c0,0,0,0.1,0,0.2c0.1,0,0.2,0,0.3,0c0.3,0,0.7,0,1,0c0.1,0,0.2,0,0.3,0
		c0,0.1,0,0.2,0,0.3c0,0.9,0,1.8,0,2.8c0,1.8,0,3.6,0,5.3c0,0.1,0,0.2,0,0.3c0.2,0,1.1,0.1,1.5,0c0-0.2,0-0.3,0-0.4
		c0-2.6,0-5.3,0-7.9c0-0.1,0-0.3,0-0.4c0.1-0.1,0.2,0,0.3,0c0.4,0,0.7,0,1.1,0c0.1,0,0.2,0,0.3-0.1c0-0.2,0-0.4,0-0.6
		c0-0.2,0-0.5,0-0.7C10.7,16.4,6.5,16.4,6.3,16.4z"/>
	<path class="st0" d="M15.2,19c-0.4,0-0.8,0-1.3,0c0,0.2,0,0.3,0,0.4c0,1.7,0,3.3,0,5c0,0.1,0,0.2,0,0.3c0,0.1,0,0.1,0,0.1
		c-0.1,0.2-0.3,0.4-0.5,0.5c-0.1,0-0.2,0.1-0.3,0.1c-0.2,0-0.3-0.1-0.3-0.2c0-0.1,0-0.2,0-0.3c0-0.2,0-0.5,0-0.7c0-1.6,0-3.2,0-4.7
		c0-0.1,0-0.3,0-0.4c-0.1-0.1-0.3,0-0.4,0c-0.1,0-0.3,0-0.4,0c-0.1,0-0.3,0-0.4,0c0,0.1,0,0.2,0,0.3c0,2,0,4,0,5.9
		c0,0.2,0,0.4,0.1,0.6c0,0.2,0.1,0.4,0.2,0.5c0.2,0.2,0.5,0.3,0.8,0.3c0.3,0,0.6-0.2,0.8-0.3c0.2-0.1,0.3-0.3,0.5-0.4
		c0,0,0.1-0.1,0.2,0c0,0.1,0,0.2,0,0.3c0,0.1,0,0.3,0,0.4c0.2,0,1,0,1.3,0c0,0,0,0,0.1-0.1c0-0.1,0-0.2,0-0.4c0-1.1,0-2.3,0-3.4
		c0-1.1,0-2.3,0-3.4C15.3,19.3,15.3,19.2,15.2,19z"/>
	<path class="st0" d="M25,24c-0.2,0-0.4-0.1-0.7,0.1c0,0.2,0,0.3,0,0.5c0,0.2,0,0.3-0.1,0.5c-0.1,0.3-0.3,0.4-0.6,0.4
		c-0.2,0-0.4-0.1-0.5-0.4C23,25,23,24.8,23,24.6c0-0.4,0-0.9,0-1.3c0-0.1,0-0.1,0-0.2c0.3,0,0.6,0,0.9,0c0.3,0,0.6,0,0.9,0
		c0.3,0,0.6,0,0.9,0c0-0.1,0-0.1,0-0.1c0-0.6,0-1.3,0-1.9c0-0.3-0.1-0.6-0.2-0.9c-0.1-0.4-0.4-0.7-0.7-0.9c-0.5-0.3-1.1-0.4-1.6-0.3
		c-0.4,0.1-0.7,0.2-1,0.5c-0.3,0.3-0.5,0.7-0.5,1.1c-0.1,0.4-0.1,0.7-0.1,1.1c0,0.8,0,1.5,0,2.3c0,0.4,0,0.8,0.1,1.2
		c0.2,0.8,0.6,1.3,1.4,1.5c0.2,0.1,0.5,0.1,0.7,0.1c0.6,0,1-0.2,1.4-0.6c0.3-0.3,0.5-0.7,0.5-1.1c0-0.3,0-0.6,0-0.8
		c0-0.1,0-0.1,0-0.2C25.5,24,25.2,24,25,24z M23,21.1c0-0.2,0-0.3,0.1-0.5c0.1-0.3,0.3-0.4,0.6-0.5c0.3,0,0.5,0.2,0.6,0.5
		c0,0.1,0,0.1,0,0.2c0.1,0.4,0,0.7,0,1.1c-0.5,0-0.9,0-1.3,0c0-0.1,0-0.1,0-0.2C23,21.5,23,21.3,23,21.1z"/>
	<path class="st0" d="M26,0H6C2.7,0,0,2.7,0,6v20c0,3.3,2.7,6,6,6h20c3.3,0,6-2.7,6-6V6C32,2.7,29.3,0,26,0z M18.9,4.6
		c0.2-0.1,0.5,0,0.7,0c0.2,0,0.4,0,0.6,0c0.1,0.1,0.1,0.2,0.1,0.3c0,1.3,0,2.7,0,4c0,0.5,0,1.1,0,1.6c0,0.1,0,0.2,0,0.3
		c0,0.1,0.1,0.2,0.3,0.2c0.1,0,0.3,0,0.4-0.1c0.2-0.1,0.3-0.3,0.4-0.4c0,0,0.1-0.1,0.1-0.2c0-0.1,0-0.2,0-0.3c0-1.7,0-3.4,0-5.1
		c0-0.1,0-0.2,0-0.4c0.1-0.1,0.3,0,0.4,0c0.1,0,0.3,0,0.4,0c0.1,0,0.3,0,0.4,0c0.1,0.1,0,0.2,0,0.3c0,0.9,0,1.7,0,2.6
		c0,1.4,0,2.9,0,4.3c0,0.1,0,0.3,0,0.4c-0.2,0.1-1.1,0.1-1.4,0c0-0.2,0-0.4,0-0.6c-0.1-0.1-0.2,0-0.2,0.1c-0.2,0.2-0.3,0.3-0.5,0.4
		c-0.2,0.1-0.5,0.3-0.7,0.3c-0.2,0-0.3,0-0.5-0.1C19.2,12.3,19,12,19,11.7c0-0.2-0.1-0.5-0.1-0.7c0-2,0-4.1,0-6.1
		C18.9,4.8,18.9,4.7,18.9,4.6z M13.6,6.9c0-0.4,0-0.8,0.2-1.1c0.2-0.7,0.7-1.1,1.4-1.3c0.6-0.1,1.1,0,1.6,0.3
		c0.3,0.2,0.5,0.5,0.7,0.9c0.1,0.3,0.2,0.7,0.2,1c0,0.3,0,0.5,0,0.8c0,0.7,0,1.5,0,2.2c0,0.3,0,0.7-0.1,1c-0.1,0.4-0.2,0.8-0.5,1.1
		c-0.3,0.3-0.6,0.5-1,0.6c-0.4,0.1-0.8,0.1-1.1-0.1c-0.6-0.2-0.9-0.6-1.2-1.1c-0.1-0.3-0.2-0.7-0.2-1c0-0.6,0-1.2,0-1.7c0,0,0,0,0,0
		C13.6,7.9,13.6,7.4,13.6,6.9z M9.9,2C10,2.2,10,2.4,10.1,2.6c0.3,1,0.6,2,0.8,3.1c0,0.1,0,0.1,0.1,0.2c0,0,0,0,0.1,0
		c0.2-0.6,0.3-1.3,0.5-1.9C11.7,3.3,11.8,2.6,12,2c0.3-0.1,1.3,0,1.5,0c0,0.1,0,0.1,0,0.2c-0.2,0.6-0.3,1.1-0.5,1.7
		c-0.2,0.8-0.5,1.6-0.7,2.4c-0.2,0.5-0.3,1.1-0.5,1.6c-0.1,0.2-0.1,0.3-0.1,0.5c0,1.2,0,2.3,0,3.5c0,0.1,0,0.3,0,0.4
		c-0.1,0-0.1,0-0.1,0c-0.4,0-0.9,0-1.3,0c0,0,0,0-0.1,0c-0.1-0.1,0-0.2,0-0.3c0-1.1,0-2.1,0-3.2c0-0.5-0.1-1-0.2-1.5
		C9.6,6,9.2,4.8,8.8,3.6C8.6,3.1,8.5,2.7,8.3,2.2c0-0.1,0-0.1,0-0.2C8.5,2,9.5,1.9,9.9,2z M27.2,26.1c-0.1,0.5-0.1,0.9-0.3,1.4
		c-0.4,1-1.1,1.7-2.2,1.9c-0.3,0.1-0.6,0.1-0.9,0.1c-0.4,0-0.9,0.1-1.3,0.1c-0.7,0-1.5,0.1-2.2,0.1c-0.5,0-0.9,0-1.4,0
		c-1.6,0-3.3,0-4.9,0c-0.8,0-1.6,0-2.4,0c-1.4,0-2.7-0.1-4.1-0.2c-1.1-0.1-1.9-0.7-2.4-1.7C5,27.5,5,27.2,4.9,27
		c-0.2-0.7-0.2-1.5-0.3-2.2c-0.1-1.7-0.1-3.5-0.1-5.2c0-1,0.1-2,0.3-3.1c0.1-0.5,0.3-1,0.6-1.4c0.4-0.6,1-1,1.7-1.1
		c0.5-0.1,1-0.1,1.4-0.2c1.1-0.1,2.2-0.1,3.3-0.1c1.4,0,2.8-0.1,4.1-0.1c0,0,0,0,0,0c1,0,1.9,0,2.9,0c1.4,0,2.7,0.1,4.1,0.2
		c0.6,0,1.1,0.1,1.7,0.2c1.1,0.2,1.9,0.8,2.3,1.9c0.1,0.3,0.1,0.5,0.2,0.8c0.2,1.1,0.3,2.2,0.3,3.3c0,0.8,0,1.7,0,2.5
		C27.4,23.8,27.4,24.9,27.2,26.1z"/>
	<path class="st0" d="M20.3,19.6c-0.2-0.4-0.6-0.7-1.1-0.7c-0.3,0-0.5,0.1-0.8,0.3c-0.1,0.1-0.3,0.2-0.4,0.4c0,0-0.1,0.1-0.2,0.1
		c-0.1-0.1,0-0.2,0-0.3c0-0.8,0-1.7,0-2.5c0-0.1,0-0.2-0.1-0.4c-0.4,0-0.8,0-1.3,0c-0.1,0.2,0,0.3,0,0.4c0,3,0,6,0,9.1
		c0,0.2,0,0.4,0,0.5c0,0.1,0,0.1,0,0.2c0.3,0,1,0,1.3,0c0.1-0.2,0-0.4,0.1-0.6c0.1,0.1,0.1,0.1,0.2,0.2c0.1,0.1,0.3,0.2,0.4,0.4
		c0.2,0.2,0.5,0.3,0.8,0.3c0.4,0,0.8-0.2,1-0.6c0.1-0.2,0.2-0.4,0.2-0.6c0-0.3,0.1-0.6,0.1-1c0-1.2,0-2.4,0-3.6c0-0.2,0-0.4,0-0.6
		C20.5,20.1,20.4,19.9,20.3,19.6z M19.2,24.3c0,0.2,0,0.4-0.1,0.6c-0.1,0.5-0.5,0.7-0.9,0.4c0,0-0.1,0-0.1-0.1
		c-0.2-0.1-0.2-0.2-0.2-0.4c0-0.4,0-0.7,0-1.1c0-0.2,0-0.4,0-0.5c0-0.2,0-0.4,0-0.5c0-0.7,0-1.4,0-2c0-0.2,0.1-0.4,0.3-0.5
		c0.1,0,0.1-0.1,0.2-0.1c0.4-0.1,0.6,0.1,0.7,0.4c0.1,0.2,0.1,0.5,0.1,0.7c0,0.6,0,1.1,0,1.7C19.2,23.4,19.2,23.9,19.2,24.3z"/>
	<path class="st0" d="M16.3,6.8c0-0.2,0-0.3,0-0.5c0-0.1-0.1-0.2-0.1-0.3c-0.2-0.3-0.8-0.4-1,0.1c-0.1,0.1-0.1,0.3-0.1,0.4
		c0,0.2,0,0.3,0,0.5c0,1,0,1.9,0,2.9c0,0.2,0,0.3,0,0.5c0,0.2,0.1,0.3,0.1,0.5c0.1,0.1,0.2,0.2,0.3,0.3c0.3,0.1,0.6,0,0.7-0.4
		c0.1-0.2,0.1-0.4,0.1-0.6c0-0.6,0-1.1,0-1.7h0C16.3,7.9,16.3,7.4,16.3,6.8z"/>
</g>
<g>
	<path class="st0" d="M26,42H6c-3.3,0-6,2.7-6,6v20c0,3.3,2.7,6,6,6h20c3.3,0,6-2.7,6-6V48C32,44.7,29.3,42,26,42z"/>
	<g>
		<linearGradient id="SVGID_1_" gradientUnits="userSpaceOnUse" x1="4.5314" y1="63.6839" x2="27.461" y2="63.6839">
			<stop  offset="0" style="stop-color:#E12D28"/>
			<stop  offset="1" style="stop-color:#982424"/>
		</linearGradient>
		<path class="st1" d="M27.2,68.1c-0.1,0.5-0.1,0.9-0.3,1.4c-0.4,1-1.1,1.7-2.2,1.9c-0.3,0.1-0.6,0.1-0.9,0.1
			c-0.4,0-0.9,0.1-1.3,0.1c-0.7,0-1.5,0.1-2.2,0.1c-0.5,0-0.9,0-1.4,0c-1.6,0-3.3,0-4.9,0c-0.8,0-1.6,0-2.4,0
			c-1.4,0-2.7-0.1-4.1-0.2c-1.1-0.1-1.9-0.7-2.4-1.7C5,69.5,5,69.2,4.9,69c-0.2-0.7-0.2-1.5-0.3-2.2c-0.1-1.7-0.1-3.5-0.1-5.2
			c0-1,0.1-2,0.3-3.1c0.1-0.5,0.3-1,0.6-1.4c0.4-0.6,1-1,1.7-1.1c0.5-0.1,1-0.1,1.4-0.2c1.1-0.1,2.2-0.1,3.3-0.1
			c1.4,0,2.8-0.1,4.1-0.1c0,0,0,0,0,0c1,0,1.9,0,2.9,0c1.4,0,2.7,0.1,4.1,0.2c0.6,0,1.1,0.1,1.7,0.2c1.1,0.2,1.9,0.8,2.3,1.9
			c0.1,0.3,0.1,0.5,0.2,0.8c0.2,1.1,0.3,2.2,0.3,3.3c0,0.8,0,1.7,0,2.5C27.4,65.8,27.4,66.9,27.2,68.1z"/>
		<g>
			<path class="st0" d="M6.3,58.4c-0.1,0.2-0.1,0.8,0,1.2c0,0,0,0.1,0,0.2c0.1,0,0.2,0,0.3,0c0.3,0,0.7,0,1,0c0.1,0,0.2,0,0.3,0
				c0,0.1,0,0.2,0,0.3c0,0.9,0,1.8,0,2.8c0,1.8,0,3.6,0,5.3c0,0.1,0,0.2,0,0.3c0.2,0,1.1,0.1,1.5,0c0-0.2,0-0.3,0-0.4
				c0-2.6,0-5.3,0-7.9c0-0.1,0-0.3,0-0.4c0.1-0.1,0.2,0,0.3,0c0.4,0,0.7,0,1.1,0c0.1,0,0.2,0,0.3-0.1c0-0.2,0-0.4,0-0.6
				c0-0.2,0-0.5,0-0.7C10.7,58.4,6.5,58.4,6.3,58.4z"/>
			<path class="st0" d="M15.2,61c-0.4,0-0.8,0-1.3,0c0,0.2,0,0.3,0,0.4c0,1.7,0,3.3,0,5c0,0.1,0,0.2,0,0.3c0,0.1,0,0.1,0,0.1
				c-0.1,0.2-0.3,0.4-0.5,0.5c-0.1,0-0.2,0.1-0.3,0.1c-0.2,0-0.3-0.1-0.3-0.2c0-0.1,0-0.2,0-0.3c0-0.2,0-0.5,0-0.7
				c0-1.6,0-3.2,0-4.7c0-0.1,0-0.3,0-0.4c-0.1-0.1-0.3,0-0.4,0c-0.1,0-0.3,0-0.4,0c-0.1,0-0.3,0-0.4,0c0,0.1,0,0.2,0,0.3
				c0,2,0,4,0,5.9c0,0.2,0,0.4,0.1,0.6c0,0.2,0.1,0.4,0.2,0.5c0.2,0.2,0.5,0.3,0.8,0.3c0.3,0,0.6-0.2,0.8-0.3
				c0.2-0.1,0.3-0.3,0.5-0.4c0,0,0.1-0.1,0.2,0c0,0.1,0,0.2,0,0.3c0,0.1,0,0.3,0,0.4c0.2,0,1,0,1.3,0c0,0,0,0,0.1-0.1
				c0-0.1,0-0.2,0-0.4c0-1.1,0-2.3,0-3.4c0-1.1,0-2.3,0-3.4C15.3,61.3,15.3,61.2,15.2,61z"/>
			<path class="st0" d="M25,66c-0.2,0-0.4-0.1-0.7,0.1c0,0.2,0,0.3,0,0.5c0,0.2,0,0.3-0.1,0.5c-0.1,0.3-0.3,0.4-0.6,0.4
				c-0.2,0-0.4-0.1-0.5-0.4C23,67,23,66.8,23,66.6c0-0.4,0-0.9,0-1.3c0-0.1,0-0.1,0-0.2c0.3,0,0.6,0,0.9,0c0.3,0,0.6,0,0.9,0
				c0.3,0,0.6,0,0.9,0c0-0.1,0-0.1,0-0.1c0-0.6,0-1.3,0-1.9c0-0.3-0.1-0.6-0.2-0.9c-0.1-0.4-0.4-0.7-0.7-0.9
				c-0.5-0.3-1.1-0.4-1.6-0.3c-0.4,0.1-0.7,0.2-1,0.5c-0.3,0.3-0.5,0.7-0.5,1.1c-0.1,0.4-0.1,0.7-0.1,1.1c0,0.8,0,1.5,0,2.3
				c0,0.4,0,0.8,0.1,1.2c0.2,0.8,0.6,1.3,1.4,1.5c0.2,0.1,0.5,0.1,0.7,0.1c0.6,0,1-0.2,1.4-0.6c0.3-0.3,0.5-0.7,0.5-1.1
				c0-0.3,0-0.6,0-0.8c0-0.1,0-0.1,0-0.2C25.5,66,25.2,66,25,66z M23,63.1c0-0.2,0-0.3,0.1-0.5c0.1-0.3,0.3-0.4,0.6-0.5
				c0.3,0,0.5,0.2,0.6,0.5c0,0.1,0,0.1,0,0.2c0.1,0.4,0,0.7,0,1.1c-0.5,0-0.9,0-1.3,0c0-0.1,0-0.1,0-0.2C23,63.5,23,63.3,23,63.1z"
				/>
			<path class="st0" d="M20.3,61.6c-0.2-0.4-0.6-0.7-1.1-0.7c-0.3,0-0.5,0.1-0.8,0.3c-0.1,0.1-0.3,0.2-0.4,0.4c0,0-0.1,0.1-0.2,0.1
				c-0.1-0.1,0-0.2,0-0.3c0-0.8,0-1.7,0-2.5c0-0.1,0-0.2-0.1-0.4c-0.4,0-0.8,0-1.3,0c-0.1,0.2,0,0.3,0,0.4c0,3,0,6,0,9.1
				c0,0.2,0,0.4,0,0.5c0,0.1,0,0.1,0,0.2c0.3,0,1,0,1.3,0c0.1-0.2,0-0.4,0.1-0.6c0.1,0.1,0.1,0.1,0.2,0.2c0.1,0.1,0.3,0.2,0.4,0.4
				c0.2,0.2,0.5,0.3,0.8,0.3c0.4,0,0.8-0.2,1-0.6c0.1-0.2,0.2-0.4,0.2-0.6c0-0.3,0.1-0.6,0.1-1c0-1.2,0-2.4,0-3.6c0-0.2,0-0.4,0-0.6
				C20.5,62.1,20.4,61.9,20.3,61.6z M19.2,66.3c0,0.2,0,0.4-0.1,0.6c-0.1,0.5-0.5,0.7-0.9,0.4c0,0-0.1,0-0.1-0.1
				c-0.2-0.1-0.2-0.2-0.2-0.4c0-0.4,0-0.7,0-1.1c0-0.2,0-0.4,0-0.5c0-0.2,0-0.4,0-0.5c0-0.7,0-1.4,0-2c0-0.2,0.1-0.4,0.3-0.5
				c0.1,0,0.1-0.1,0.2-0.1c0.4-0.1,0.6,0.1,0.7,0.4c0.1,0.2,0.1,0.5,0.1,0.7c0,0.6,0,1.1,0,1.7C19.2,65.4,19.2,65.9,19.2,66.3z"/>
		</g>
	</g>
	<g>
		<path d="M9.9,44c0.1,0.2,0.1,0.4,0.2,0.6c0.3,1,0.6,2,0.8,3.1c0,0.1,0,0.1,0.1,0.2c0,0,0,0,0.1,0c0.2-0.6,0.3-1.3,0.5-1.9
			c0.2-0.6,0.3-1.3,0.5-1.9c0.3-0.1,1.3,0,1.5,0c0,0.1,0,0.1,0,0.2c-0.2,0.6-0.3,1.1-0.5,1.7c-0.2,0.8-0.5,1.6-0.7,2.4
			c-0.2,0.5-0.3,1.1-0.5,1.6c-0.1,0.2-0.1,0.3-0.1,0.5c0,1.2,0,2.3,0,3.5c0,0.1,0,0.3,0,0.4c-0.1,0-0.1,0-0.1,0c-0.4,0-0.9,0-1.3,0
			c0,0,0,0-0.1,0c-0.1-0.1,0-0.2,0-0.3c0-1.1,0-2.1,0-3.2c0-0.5-0.1-1-0.2-1.5c-0.3-1.2-0.8-2.4-1.2-3.6c-0.2-0.5-0.3-0.9-0.5-1.4
			c0-0.1,0-0.1,0-0.2C8.5,44,9.5,43.9,9.9,44z"/>
		<path d="M17.8,49.5c0-0.3,0-0.5,0-0.8c0-0.3-0.1-0.7-0.2-1c-0.1-0.4-0.4-0.7-0.7-0.9c-0.5-0.3-1-0.4-1.6-0.3
			c-0.7,0.1-1.2,0.6-1.4,1.3c-0.1,0.4-0.2,0.7-0.2,1.1c0,0.5,0,1,0,1.5c0,0,0,0,0,0c0,0.6,0,1.2,0,1.7c0,0.4,0.1,0.7,0.2,1
			c0.2,0.5,0.6,0.9,1.2,1.1c0.4,0.1,0.8,0.1,1.1,0.1c0.4-0.1,0.7-0.3,1-0.6c0.3-0.3,0.5-0.7,0.5-1.1c0.1-0.3,0.1-0.7,0.1-1
			C17.8,51,17.8,50.2,17.8,49.5z M16.3,52.1c0,0.2,0,0.4-0.1,0.6c-0.1,0.3-0.4,0.4-0.7,0.4c-0.2,0-0.3-0.1-0.3-0.3
			c-0.1-0.1-0.1-0.3-0.1-0.5c0-0.2,0-0.3,0-0.5c0-1,0-1.9,0-2.9c0-0.2,0-0.3,0-0.5c0-0.1,0.1-0.3,0.1-0.4c0.2-0.4,0.8-0.4,1-0.1
			c0,0.1,0.1,0.2,0.1,0.3c0,0.2,0,0.3,0,0.5c0,0.5,0,1.1,0,1.6h0C16.3,51,16.3,51.6,16.3,52.1z"/>
		<path d="M18.9,46.6c0.2-0.1,0.5,0,0.7,0c0.2,0,0.4,0,0.6,0c0.1,0.1,0.1,0.2,0.1,0.3c0,1.3,0,2.7,0,4c0,0.5,0,1.1,0,1.6
			c0,0.1,0,0.2,0,0.3c0,0.1,0.1,0.2,0.3,0.2c0.1,0,0.3,0,0.4-0.1c0.2-0.1,0.3-0.3,0.4-0.4c0,0,0.1-0.1,0.1-0.2c0-0.1,0-0.2,0-0.3
			c0-1.7,0-3.4,0-5.1c0-0.1,0-0.2,0-0.4c0.1-0.1,0.3,0,0.4,0c0.1,0,0.3,0,0.4,0c0.1,0,0.3,0,0.4,0c0.1,0.1,0,0.2,0,0.3
			c0,0.9,0,1.7,0,2.6c0,1.4,0,2.9,0,4.3c0,0.1,0,0.3,0,0.4c-0.2,0.1-1.1,0.1-1.4,0c0-0.2,0-0.4,0-0.6c-0.1-0.1-0.2,0-0.2,0.1
			c-0.2,0.2-0.3,0.3-0.5,0.4c-0.2,0.1-0.5,0.3-0.7,0.3c-0.2,0-0.3,0-0.5-0.1C19.2,54.3,19,54,19,53.7c0-0.2-0.1-0.5-0.1-0.7
			c0-2,0-4.1,0-6.1C18.9,46.8,18.9,46.7,18.9,46.6z"/>
	</g>
</g>
</svg>
