<?xml version="1.0" encoding="utf-8"?>
<!-- Generator: Adobe Illustrator 21.0.2, SVG Export Plug-In . SVG Version: 6.00 Build 0)  -->
<svg version="1.1" id="Layer_1" xmlns="http://www.w3.org/2000/svg" xmlns:xlink="http://www.w3.org/1999/xlink" x="0px" y="0px"
	 viewBox="0 0 32 74" style="enable-background:new 0 0 32 74;" xml:space="preserve">
<style type="text/css">
	.st0{fill:#FFFFFF;}
	.st1{fill:#E8873B;}
</style>
<g>
	<rect x="5.3" y="13.6" class="st0" width="3.2" height="3.2"/>
	<rect x="9.8" y="13.6" class="st0" width="3.3" height="3.2"/>
	<path class="st0" d="M16,0C7.2,0,0,7.2,0,16s7.2,16,16,16s16-7.2,16-16S24.8,0,16,0z M14.2,17.9H9.8v3.7H8.6v-3.7H4.1v-5.5h4.4
		v-2.1h1.2v2.1h4.5V17.9z M27.2,21.8c-2-0.7-3.6-1.6-5-2.7c-1.5,1.2-3.2,2-5.1,2.6l-0.6-1c2.1-0.7,3.7-1.5,4.8-2.4
		c-1-1-1.8-2.4-2.5-4.2l1.1-0.5c0.6,1.7,1.4,3,2.3,3.9c0.9-0.9,1.7-2.3,2.3-4.1h-7.9v-1.2h5c-0.3-0.6-0.6-1.1-0.9-1.6l1.2-0.4
		c0.5,0.7,0.8,1.4,1,2h5v1.2h-2.1c-0.7,2.1-1.5,3.8-2.6,4.9c1.1,0.9,2.7,1.7,4.8,2.5L27.2,21.8z"/>
</g>
<g>
	<rect x="5.3" y="55.6" class="st1" width="3.2" height="3.2"/>
	<rect x="9.8" y="55.6" class="st1" width="3.3" height="3.2"/>
	<path class="st1" d="M16,42C7.2,42,0,49.2,0,58s7.2,16,16,16s16-7.2,16-16S24.8,42,16,42z M14.2,59.9H9.8v3.7H8.6v-3.7H4.1v-5.5
		h4.4v-2.1h1.2v2.1h4.5V59.9z M27.2,63.8c-2-0.7-3.6-1.6-5-2.7c-1.5,1.2-3.2,2-5.1,2.6l-0.6-1c2.1-0.7,3.7-1.5,4.8-2.4
		c-1-1-1.8-2.4-2.5-4.2l1.1-0.5c0.6,1.7,1.4,3,2.3,3.9c0.9-0.9,1.7-2.3,2.3-4.1h-7.9v-1.2h5c-0.3-0.6-0.6-1.1-0.9-1.6l1.2-0.4
		c0.5,0.7,0.8,1.4,1,2h5v1.2h-2.1c-0.7,2.1-1.5,3.8-2.6,4.9c1.1,0.9,2.7,1.7,4.8,2.5L27.2,63.8z"/>
</g>
</svg>
